<?xml version="1.0" encoding="UTF-8"?>
<!DOCTYPE svg PUBLIC "-//W3C//DTD SVG 1.1//EN" "http://www.w3.org/Graphics/SVG/1.1/DTD/svg11.dtd">
<!-- Creator: CorelDRAW X7 -->
<svg xmlns="http://www.w3.org/2000/svg" xml:space="preserve" width="278.492mm" height="150.762mm" version="1.1" style="shape-rendering:geometricPrecision; text-rendering:geometricPrecision; image-rendering:optimizeQuality; fill-rule:evenodd; clip-rule:evenodd"
viewBox="0 0 79229 42891"
 xmlns:xlink="http://www.w3.org/1999/xlink">
 <defs>
  <style type="text/css">
   <![CDATA[
    .str3 {stroke:#727376;stroke-width:284.492}
    .str0 {stroke:#373435;stroke-width:568.984}
    .str1 {stroke:#96989A;stroke-width:142.246}
    .str2 {stroke:#848688;stroke-width:142.246}
    .fil8 {fill:none}
    .fil7 {fill:#FEFEFE}
    .fil6 {fill:#E6E7E8}
    .fil15 {fill:#D2D3D5}
    .fil14 {fill:#96989A}
    .fil13 {fill:#606062}
    .fil16 {fill:#ED3237}
    .fil11 {fill:#82D4F4}
    .fil9 {fill:#2DAFE4}
    .fil10 {fill:#282829}
    .fil12 {fill:#0678A8}
    .fil17 {fill:black}
    .fil1 {fill:#BF2828}
    .fil5 {fill:#FF1100}
    .fil0 {fill:#FF4747}
    .fil2 {fill:#FF7A7A}
    .fil3 {fill:#FFC7C7}
    .fil4 {fill:white}
   ]]>
  </style>
 </defs>
 <g id="Layer_x0020_1">
  <metadata id="CorelCorpID_0Corel-Layer"/>
  <polygon class="fil0" points="24689,0 51980,0 39614,21445 "/>
  <polygon class="fil1" points="4953,0 24689,0 39614,21445 "/>
  <polygon class="fil0" points="4953,0 0,0 0,12044 39614,21445 "/>
  <polygon class="fil2" points="0,26345 0,12044 39614,21445 "/>
  <polygon class="fil1" points="0,26345 0,38991 39614,21445 "/>
  <polygon class="fil0" points="27170,42834 0,42891 0,38991 39614,21445 "/>
  <polygon class="fil3" points="54462,42811 27170,42834 39518,21378 "/>
  <polygon class="fil0" points="54462,42811 74592,42891 39518,21378 "/>
  <polygon class="fil1" points="79229,30466 79229,42891 74592,42891 39518,21378 "/>
  <polygon class="fil2" points="79229,30466 79229,16847 39518,21378 "/>
  <polygon class="fil0" points="79229,6680 79229,16847 39518,21378 "/>
  <polygon class="fil1" points="79229,6680 79229,0 51980,0 39518,21378 "/>
  <circle class="fil4" cx="39433" cy="21525" r="10721"/>
  <circle class="fil3" cx="39433" cy="21525" r="9567"/>
  <circle class="fil2" cx="39433" cy="21525" r="7898"/>
  <circle class="fil5" cx="39433" cy="21525" r="6730"/>
  <g id="_1877948345088">
   <g>
    <polygon class="fil6" points="37273,34461 40466,42874 39977,42874 37048,35062 "/>
    <polygon class="fil7" points="51207,29053 37273,34461 40466,42874 56578,42874 "/>
   </g>
   <g>
    <path class="fil8 str0" d="M40490 36956c413,-13 826,-25 1095,-63 270,-37 395,-100 570,-244 175,-144 401,-369 551,-513 150,-144 225,-207 388,-238 163,-31 413,-31 670,-38 256,-6 519,-18 701,-75 181,-56 281,-156 413,-281 131,-126 294,-276 451,-382 156,-107 306,-169 525,-207 220,-37 507,-50 720,-62 213,-13 351,-26 507,-101 157,-75 332,-212 489,-356 156,-144 294,-295 438,-395 144,-100 294,-150 500,-175 207,-25 470,-25 689,-44 219,-19 394,-56 588,-181 194,-126 407,-338 557,-476 151,-138 238,-200 326,-263"/>
    <path class="fil8 str0" d="M40978 38082c226,0 451,0 658,-12 206,-13 394,-38 588,-119 194,-81 394,-219 595,-357 200,-137 400,-275 582,-357 181,-81 344,-106 594,-119 251,-12 589,-12 858,-106 269,-94 469,-282 657,-463 188,-182 363,-357 597,-449 234,-91 526,-100 776,-99 250,2 458,12 605,-1 147,-14 234,-51 320,-88"/>
   </g>
   <g>
    <polygon class="fil9" points="47526,36487 47808,36140 49385,36515 48634,37642 "/>
    <polygon class="fil10" points="47574,36428 47386,36271 47357,36093 47555,36074 47740,36224 "/>
    <polygon class="fil11" points="57366,41027 56653,42172 48634,37642 49385,36515 "/>
    <polygon class="fil12" points="56820,41903 57186,41316 57892,41740 57554,42360 "/>
   </g>
   <g>
    <ellipse class="fil13" cx="39421" cy="34481" rx="338" ry="332"/>
    <ellipse class="fil13" cx="40861" cy="33928" rx="338" ry="332"/>
    <ellipse class="fil13" cx="42332" cy="33367" rx="338" ry="332"/>
    <ellipse class="fil13" cx="43745" cy="32804" rx="338" ry="332"/>
    <ellipse class="fil13" cx="45213" cy="32237" rx="338" ry="332"/>
    <ellipse class="fil13" cx="46688" cy="31649" rx="338" ry="332"/>
    <ellipse class="fil13" cx="48154" cy="31125" rx="338" ry="332"/>
    <ellipse class="fil13" cx="49613" cy="30593" rx="338" ry="332"/>
   </g>
   <g>
    <polygon class="fil14" points="38954,33378 39044,33318 39168,33307 39272,33363 39352,33445 39619,34267 39632,34389 39588,34511 39478,34594 39340,34591 39210,34522 39157,34433 38892,33609 38895,33479 "/>
    <polygon class="fil14" points="40398,32834 40488,32774 40612,32763 40716,32819 40796,32901 41063,33723 41076,33845 41032,33967 40922,34050 40784,34047 40654,33978 40601,33889 40336,33065 40339,32936 "/>
    <polygon class="fil14" points="41877,32294 41967,32234 42091,32222 42195,32279 42275,32360 42542,33183 42555,33305 42511,33426 42401,33510 42263,33507 42133,33438 42079,33349 41815,32525 41818,32395 "/>
    <polygon class="fil14" points="43290,31717 43380,31657 43504,31645 43608,31702 43688,31783 43955,32606 43968,32728 43924,32849 43814,32933 43676,32930 43546,32861 43492,32772 43228,31948 43231,31818 "/>
    <polygon class="fil14" points="44764,31172 44854,31112 44978,31101 45082,31157 45162,31239 45429,32061 45442,32184 45398,32305 45288,32388 45150,32385 45020,32317 44967,32227 44702,31403 44705,31274 "/>
    <polygon class="fil14" points="46248,30590 46338,30530 46462,30519 46566,30575 46645,30657 46913,31479 46926,31601 46882,31723 46771,31806 46633,31803 46503,31734 46450,31645 46185,30821 46189,30691 "/>
    <polygon class="fil14" points="47703,30064 47793,30004 47917,29993 48021,30049 48101,30131 48368,30953 48381,31076 48337,31197 48227,31281 48089,31278 47959,31209 47905,31119 47641,30295 47644,30166 "/>
    <polygon class="fil14" points="49159,29520 49249,29460 49373,29448 49476,29505 49556,29586 49823,30409 49837,30531 49793,30652 49682,30736 49544,30733 49414,30664 49361,30575 49096,29751 49099,29621 "/>
   </g>
  </g>
  <polygon class="fil15" points="65194,5114 48717,7968 48643,27095 68393,22958 "/>
  <polygon class="fil7" points="64933,5173 48457,8027 56173,28933 75922,24795 "/>
  <g id="_1877948337344">
   <polygon class="fil7" points="34542,19315 22880,12949 9654,23941 30546,32354 "/>
   <polygon class="fil7 str1" points="21724,17191 20510,16551 19896,17218 21346,17978 "/>
   <polygon class="fil7 str2" points="22888,15813 21674,15173 21060,15840 22509,16600 "/>
   <path class="fil8 str3" d="M22659 14317c402,-61 805,-123 1089,-136 285,-13 453,22 642,142 188,119 398,322 610,596 212,274 427,617 626,882 200,264 385,449 528,572 144,123 245,184 363,212 118,28 252,23 437,-27 184,-51 419,-148 621,-155 202,-7 371,75 550,149 179,74 368,141 691,467 323,327 780,914 1103,1241 323,327 512,393 700,459"/>
   <path class="fil8 str2" d="M23528 16768c237,-36 473,-72 641,-80 168,-8 267,13 378,83 111,71 234,190 359,351 125,161 251,364 369,520 117,155 226,264 311,336 84,73 144,109 213,125 70,17 149,14 257,-16 109,-30 247,-86 366,-91 119,-4 219,44 324,88 105,44 217,83 407,275 190,192 459,538 649,731 190,192 301,231 413,270"/>
   <path class="fil8 str1" d="M22295 17952c237,-36 474,-72 641,-80 168,-8 267,13 378,83 111,71 234,190 359,351 125,161 251,364 369,519 118,156 227,265 311,337 84,73 144,109 213,125 70,17 149,14 258,-16 108,-30 246,-86 365,-91 119,-4 219,44 324,88 106,44 217,83 407,275 190,192 459,538 649,731 190,192 302,231 413,270"/>
  </g>
  <polygon class="fil16" points="64933,5173 48457,8027 50437,13393 62189,17053 68087,10804 "/>
  <g id="_1877728626352">
   <rect class="fil13" transform="matrix(0.828756 -0.178651 0.252258 0.564194 58834.5 17928.9)" width="1393" height="1430"/>
   <rect class="fil13" transform="matrix(0.828756 -0.178651 0.252258 0.564194 61215.8 17403.7)" width="1393" height="1430"/>
   <rect class="fil13" transform="matrix(0.828756 -0.178651 0.252258 0.564194 63549.9 16900.5)" width="1393" height="1430"/>
   <rect class="fil13" transform="matrix(0.828756 -0.178651 0.252258 0.564194 65907.7 16392.3)" width="1393" height="1430"/>
   <rect class="fil13" transform="matrix(0.828756 -0.178651 0.252258 0.564194 68265.4 15884)" width="1393" height="1430"/>
   <rect class="fil13" transform="matrix(0.828756 -0.178651 0.252258 0.564194 56453.2 18442.2)" width="1393" height="1430"/>
   <rect class="fil13" transform="matrix(0.828756 -0.178651 0.252258 0.564194 54119 18945.4)" width="1393" height="1430"/>
   <rect class="fil13" transform="matrix(0.828756 -0.178651 0.252258 0.564194 59546.1 19539.2)" width="1393" height="1430"/>
   <rect class="fil13" transform="matrix(0.828756 -0.178651 0.252258 0.564194 61927.4 19013.9)" width="1393" height="1430"/>
   <rect class="fil13" transform="matrix(0.828756 -0.178651 0.252258 0.564194 64261.5 18510.8)" width="1393" height="1430"/>
   <rect class="fil13" transform="matrix(0.828756 -0.178651 0.252258 0.564194 66619.3 18002.5)" width="1393" height="1430"/>
   <rect class="fil13" transform="matrix(0.828756 -0.178651 0.252258 0.564194 68977 17494.3)" width="1393" height="1430"/>
   <rect class="fil13" transform="matrix(0.828756 -0.178651 0.252258 0.564194 57164.8 20052.5)" width="1393" height="1430"/>
   <rect class="fil13" transform="matrix(0.828756 -0.178651 0.252258 0.564194 54830.6 20555.7)" width="1393" height="1430"/>
   <rect class="fil13" transform="matrix(0.828756 -0.178651 0.252258 0.564194 60242.2 21135.2)" width="1393" height="1430"/>
   <rect class="fil13" transform="matrix(0.828756 -0.178651 0.252258 0.564194 62623.5 20609.9)" width="1393" height="1430"/>
   <rect class="fil13" transform="matrix(0.828756 -0.178651 0.252258 0.564194 64957.6 20106.8)" width="1393" height="1430"/>
   <rect class="fil13" transform="matrix(0.828756 -0.178651 0.252258 0.564194 67315.4 19598.5)" width="1393" height="1430"/>
   <rect class="fil13" transform="matrix(0.828756 -0.178651 0.252258 0.564194 69673.1 19090.3)" width="1393" height="1430"/>
   <rect class="fil13" transform="matrix(0.828756 -0.178651 0.252258 0.564194 57860.9 21648.5)" width="1393" height="1430"/>
   <rect class="fil13" transform="matrix(0.828756 -0.178651 0.252258 0.564194 55526.7 22151.7)" width="1393" height="1430"/>
   <rect class="fil13" transform="matrix(0.828756 -0.178651 0.252258 0.564194 60932.6 22755.7)" width="1393" height="1430"/>
   <rect class="fil13" transform="matrix(0.828756 -0.178651 0.252258 0.564194 63313.8 22230.4)" width="1393" height="1430"/>
   <rect class="fil13" transform="matrix(0.828756 -0.178651 0.252258 0.564194 65648 21727.3)" width="1393" height="1430"/>
   <rect class="fil13" transform="matrix(0.828756 -0.178651 0.252258 0.564194 68005.7 21219)" width="1393" height="1430"/>
   <rect class="fil13" transform="matrix(0.828756 -0.178651 0.252258 0.564194 70363.5 20710.8)" width="1393" height="1430"/>
   <rect class="fil13" transform="matrix(0.828756 -0.178651 0.252258 0.564194 58551.2 23269)" width="1393" height="1430"/>
   <rect class="fil13" transform="matrix(0.828756 -0.178651 0.252258 0.564194 56217.1 23772.2)" width="1393" height="1430"/>
   <rect class="fil15" transform="matrix(0.828756 -0.178651 0.252258 0.564194 61685.3 24362.7)" width="1393" height="1430"/>
   <rect class="fil15" transform="matrix(0.828756 -0.178651 0.252258 0.564194 64066.5 23837.5)" width="1393" height="1430"/>
   <rect class="fil15" transform="matrix(0.828756 -0.178651 0.252258 0.564194 66400.7 23334.3)" width="1393" height="1430"/>
   <rect class="fil15" transform="matrix(0.828756 -0.178651 0.252258 0.564194 68758.5 22826.1)" width="1393" height="1430"/>
   <rect class="fil15" transform="matrix(0.828756 -0.178651 0.252258 0.564194 71116.2 22317.8)" width="1393" height="1430"/>
   <rect class="fil13" transform="matrix(0.828756 -0.178651 0.252258 0.564194 59304 24876.1)" width="1393" height="1430"/>
   <rect class="fil13" transform="matrix(0.828756 -0.178651 0.252258 0.564194 56969.8 25379.2)" width="1393" height="1430"/>
  </g>
  <g id="_1877726785568">
   <path class="fil7" d="M55116 12795c-610,-151 -2547,-681 -1249,-1457 734,-438 2871,-742 3713,-496 564,165 1106,441 1693,606 245,-635 218,-1475 2049,-1675 1123,-123 1655,336 2282,670 465,-328 221,-421 1686,-875 841,-261 625,-202 1363,-318 -846,883 -1186,731 -1795,1236l12 3 84 -73c-1104,1511 -2354,1165 -3216,893 -128,506 -423,1033 -1167,1441 -2143,1177 -3636,-294 -4606,-818l11 -9 109 -6c-583,3 -790,3 -1127,13 242,459 164,168 158,865zm4652 -1240c15,2 31,5 46,7l20 -12c-20,1 -42,2 -66,5zm-671 218c-46,31 -77,62 -84,93 30,-30 58,-61 84,-93zm4406 -1262c-36,12 -72,29 -121,63l5 8c42,-25 81,-48 116,-71zm-2484 622c-45,0 -85,4 -122,15 27,13 60,7 102,4l20 -19zm-6218 545c14,-28 22,-57 23,-88 -21,55 -29,72 -23,88z"/>
  </g>
  <path class="fil8" d="M55116 12795c-987,-1099 -2049,-1261 1248,-1472 1051,-68 3834,2837 4314,-744 1634,-646 2383,1421 3664,-211 201,-255 1982,-889 2311,-1118"/>
  <path class="fil17" d="M42092 18535l-332 0 0 -665 -665 0 0 665 -3323 0 0 -665 -665 0 0 665 -332 0c-366,0 -665,299 -665,664l0 5317c0,366 299,665 665,665l5317 0c365,0 665,-299 665,-665l-1 -5317c0,-365 -299,-664 -664,-664l0 0zm0 5981l-5317 0 0 -4320 5317 0 0 4320z"/>
 </g>
</svg>
