<?xml version="1.0" encoding="UTF-8"?>
<!DOCTYPE svg PUBLIC "-//W3C//DTD SVG 1.1//EN" "http://www.w3.org/Graphics/SVG/1.1/DTD/svg11.dtd">
<!-- Creator: CorelDRAW X7 -->
<svg xmlns="http://www.w3.org/2000/svg" xml:space="preserve" width="278.71mm" height="150.762mm" version="1.1" style="shape-rendering:geometricPrecision; text-rendering:geometricPrecision; image-rendering:optimizeQuality; fill-rule:evenodd; clip-rule:evenodd"
viewBox="0 0 28007 15150"
 xmlns:xlink="http://www.w3.org/1999/xlink">
 <defs>
  <style type="text/css">
   <![CDATA[
    .fil20 {fill:#FEFEFE}
    .fil19 {fill:#BDBFC1}
    .fil18 {fill:#848688}
    .fil0 {fill:#FFCC00}
    .fil9 {fill:#2F4449;fill-rule:nonzero}
    .fil16 {fill:#3497DB;fill-rule:nonzero}
    .fil7 {fill:#463434;fill-rule:nonzero}
    .fil15 {fill:#495B62;fill-rule:nonzero}
    .fil5 {fill:#496067;fill-rule:nonzero}
    .fil8 {fill:#60747C;fill-rule:nonzero}
    .fil13 {fill:#77383B;fill-rule:nonzero}
    .fil12 {fill:#BA754F;fill-rule:nonzero}
    .fil17 {fill:#C1E6FF;fill-rule:nonzero}
    .fil14 {fill:#E6A883;fill-rule:nonzero}
    .fil1 {fill:#EBEFF0;fill-rule:nonzero}
    .fil11 {fill:#FBD4BA;fill-rule:nonzero}
    .fil6 {fill:black;fill-rule:nonzero;fill-opacity:0.101961}
    .fil3 {fill:#EBEFF0;fill-rule:nonzero;fill-opacity:0.400000}
    .fil10 {fill:#496067;fill-rule:nonzero;fill-opacity:0.501961}
    .fil4 {fill:#EBEFF0;fill-rule:nonzero;fill-opacity:0.501961}
    .fil2 {fill:#EBEFF0;fill-rule:nonzero;fill-opacity:0.800000}
   ]]>
  </style>
 </defs>
 <g id="Layer_x0020_1">
  <metadata id="CorelCorpID_0Corel-Layer"/>
  <rect class="fil0" x="22" width="27985" height="15150"/>
  <g id="_1877950613008">
   <g>
    <path class="fil1" d="M4926 2686c0,506 -410,916 -916,916 -506,0 -916,-410 -916,-916 0,-506 410,-916 916,-916 506,0 916,410 916,916z"/>
   </g>
   <g>
    <path class="fil1" d="M4789 3994c0,426 -350,771 -783,771 -432,0 -783,-345 -783,-771 0,-425 351,-770 783,-770 433,0 783,345 783,770z"/>
   </g>
   <g>
    <path class="fil1" d="M5755 3158c0,426 -351,771 -783,771 -433,0 -783,-345 -783,-771 0,-425 350,-770 783,-770 432,0 783,345 783,770z"/>
   </g>
   <g>
    <path class="fil1" d="M6104 2686c0,426 -350,771 -783,771 -432,0 -783,-345 -783,-771 0,-425 351,-770 783,-770 433,0 783,345 783,770z"/>
   </g>
   <g>
    <path class="fil1" d="M6169 3858c0,509 -419,922 -937,922 -517,0 -937,-413 -937,-922 0,-510 420,-922 937,-922 518,0 937,412 937,922z"/>
   </g>
   <g>
    <path class="fil1" d="M6656 3387c0,374 -309,677 -689,677 -380,0 -688,-303 -688,-677 0,-374 308,-677 688,-677 380,0 689,303 689,677z"/>
   </g>
   <g>
    <path class="fil1" d="M3896 3423c0,406 -330,736 -737,736 -407,0 -736,-330 -736,-736 0,-407 329,-737 736,-737 407,0 737,330 737,737z"/>
   </g>
  </g>
  <g id="_1877950616272">
   <g>
    <path class="fil2" d="M25427 7183c0,373 -303,676 -676,676 -373,0 -676,-303 -676,-676 0,-373 303,-675 676,-675 373,0 676,302 676,675z"/>
   </g>
   <g>
    <path class="fil2" d="M25326 8148c0,314 -259,568 -578,568 -319,0 -577,-254 -577,-568 0,-314 258,-568 577,-568 319,0 578,254 578,568z"/>
   </g>
   <g>
    <path class="fil2" d="M26038 7531c0,314 -259,569 -578,569 -319,0 -577,-255 -577,-569 0,-314 258,-568 577,-568 319,0 578,254 578,568z"/>
   </g>
   <g>
    <path class="fil2" d="M26296 7183c0,314 -259,568 -578,568 -319,0 -577,-254 -577,-568 0,-314 258,-568 577,-568 319,0 578,254 578,568z"/>
   </g>
   <g>
    <path class="fil2" d="M26344 8047c0,376 -310,681 -692,681 -381,0 -691,-305 -691,-681 0,-375 310,-680 691,-680 382,0 692,305 692,680z"/>
   </g>
   <g>
    <path class="fil2" d="M26702 7700c0,276 -227,500 -507,500 -281,0 -508,-224 -508,-500 0,-276 227,-499 508,-499 280,0 507,223 507,499z"/>
   </g>
   <g>
    <path class="fil2" d="M24666 7726c0,301 -243,544 -543,544 -300,0 -543,-243 -543,-544 0,-300 243,-543 543,-543 300,0 543,243 543,543z"/>
   </g>
  </g>
  <g id="_1877950619248">
   <g>
    <path class="fil3" d="M769 8709c-46,421 -370,743 -769,806l0 -1810c481,75 822,516 769,1004z"/>
   </g>
   <g>
    <path class="fil3" d="M490 9995c-32,294 -229,531 -490,632l0 -1433c320,125 529,448 490,801z"/>
   </g>
   <g>
    <path class="fil3" d="M1541 9269c-46,423 -432,727 -862,680 -340,-37 -606,-283 -679,-594l0 -348c88,-375 448,-633 847,-590 430,48 740,429 694,852z"/>
   </g>
   <g>
    <path class="fil3" d="M1940 8838c-46,423 -432,727 -862,680 -430,-47 -741,-428 -695,-851 47,-423 433,-728 863,-681 430,48 740,429 694,852z"/>
   </g>
   <g>
    <path class="fil3" d="M1877 10009c-55,506 -517,871 -1032,815 -514,-57 -886,-513 -831,-1019 55,-506 517,-871 1032,-815 514,57 887,513 831,1019z"/>
   </g>
   <g>
    <path class="fil3" d="M2412 9595c-41,371 -380,639 -758,598 -378,-42 -651,-377 -611,-748 41,-372 380,-640 758,-599 378,42 651,377 611,749z"/>
   </g>
  </g>
  <g id="_1877950623760">
   <g>
    <path class="fil4" d="M21879 5102c0,268 -217,485 -485,485 -267,0 -485,-217 -485,-485 0,-268 218,-485 485,-485 268,0 485,217 485,485z"/>
   </g>
   <g>
    <path class="fil4" d="M22011 5585c0,280 -231,508 -515,508 -285,0 -516,-228 -516,-508 0,-280 231,-507 516,-507 284,0 515,227 515,507z"/>
   </g>
   <g>
    <path class="fil4" d="M23029 5052c0,263 -217,477 -485,477 -267,0 -484,-214 -484,-477 0,-263 217,-477 484,-477 268,0 485,214 485,477z"/>
   </g>
   <g>
    <path class="fil4" d="M22442 4915c0,264 -217,477 -485,477 -267,0 -484,-213 -484,-477 0,-263 217,-476 484,-476 268,0 485,213 485,476z"/>
   </g>
   <g>
    <path class="fil4" d="M23118 5550c0,269 -222,488 -496,488 -273,0 -495,-219 -495,-488 0,-270 222,-488 495,-488 274,0 496,218 496,488z"/>
   </g>
   <g>
    <path class="fil4" d="M22530 5721c0,269 -222,488 -496,488 -274,0 -495,-219 -495,-488 0,-270 221,-488 495,-488 274,0 496,218 496,488z"/>
   </g>
   <g>
    <path class="fil4" d="M23393 5337c0,169 -140,307 -312,307 -173,0 -312,-138 -312,-307 0,-170 139,-307 312,-307 172,0 312,137 312,307z"/>
   </g>
   <g>
    <path class="fil4" d="M21388 5324c0,223 -181,403 -404,403 -223,0 -404,-180 -404,-403 0,-223 181,-404 404,-404 223,0 404,181 404,404z"/>
   </g>
  </g>
  <g id="_1877950626896">
   <g>
    <path class="fil5" d="M13172 7471c563,234 2274,-1774 2577,-958 135,363 105,806 -117,1549l760 -260c161,-1068 220,-1767 -199,-2165 -702,-669 -2740,998 -2740,998 0,0 -508,742 -281,836z"/>
    <path class="fil6" d="M14450 5948c-549,320 -997,687 -997,687 0,0 -508,742 -281,836 282,117 853,-329 1390,-700 -47,-273 -88,-547 -112,-823z"/>
    <path class="fil6" d="M15741 7657c-29,125 -65,259 -109,405l760 -260c13,-89 26,-175 38,-259 -230,34 -460,72 -689,114z"/>
    <path class="fil7" d="M16964 8036c-10,159 -178,266 -360,242l-879 -117c-99,-13 -169,-108 -162,-213 7,-105 88,-191 187,-191l558 -3 329 -2c183,-2 337,126 327,284z"/>
   </g>
   <g>
    <path class="fil8" d="M14227 6826c-277,-486 -268,-1212 -238,-1833 16,-334 29,-447 137,-740 58,-158 -55,-738 -476,-762l-542 -184c-573,501 -957,1264 -999,2135 -34,690 201,1714 539,2228 444,-150 1284,-603 1579,-844z"/>
    <path class="fil1" d="M13272 4831c62,-577 354,-868 426,-1334 78,13 145,46 201,92 -169,358 -296,899 -341,1326 -23,224 -20,370 22,819 0,0 -387,-176 -308,-903z"/>
    <path class="fil5" d="M13140 4170c-140,746 167,1294 167,1294 -70,-782 64,-1110 64,-1110l-231 -184z"/>
    <path class="fil9" d="M13789 3757c0,0 -828,1219 -313,2299l294 361 -117 -459c0,0 -487,-978 189,-2187l-53 -14z"/>
    <path class="fil5" d="M13555 5434l226 -880 -155 -62c0,0 -111,569 -71,942z"/>
    <g>
     <path class="fil10" d="M13209 6582c20,58 2,117 -40,132l-475 163c-42,14 -93,-22 -113,-80 -20,-59 -2,-118 40,-132l476 -163c42,-15 92,21 112,80z"/>
    </g>
   </g>
   <g>
    <path class="fil8" d="M12739 10938c386,-756 591,-1617 812,-2814 125,-675 153,-1389 -6,-1934l-1132 100c159,545 249,1168 249,1829 0,1047 -44,2110 -411,2810 0,0 34,57 249,66 216,9 239,-57 239,-57z"/>
    <path class="fil5" d="M13653 7194l-1005 476c0,0 35,309 13,658 0,0 522,-549 966,-736 0,0 37,-235 26,-398z"/>
    <path class="fil7" d="M13533 11078c4,158 -155,280 -338,271l-886 -41c-99,-5 -177,-94 -179,-199 -3,-105 71,-197 170,-206l555 -51 328 -30c183,-17 347,97 350,256z"/>
   </g>
   <g>
    <g>
     <path class="fil5" d="M17118 2673c-272,1520 -2384,1366 -3049,865l-38 632c121,111 223,187 363,262 1375,729 3305,-217 3435,-1769 0,0 -100,-116 -347,-95 -302,26 -364,105 -364,105z"/>
     <g>
      <path class="fil11" d="M17821 2605c-28,156 -132,208 -353,208 -179,0 -408,-148 -408,-342l3 0c-22,-414 179,-400 399,-400 221,0 321,-170 366,119 0,0 16,280 -7,415z"/>
      <path class="fil11" d="M17187 2281c14,51 0,222 -51,236 -52,14 -53,73 -67,22l-176 -603c-14,-51 16,-104 68,-118 51,-15 104,16 119,68l107 395z"/>
      <path class="fil11" d="M17386 2167c15,51 -16,104 -68,118 -51,15 -104,-16 -118,-68l-108 -395c-14,-51 16,-105 68,-119 52,-14 105,17 119,68l107 396z"/>
      <path class="fil11" d="M17581 2132c7,53 -30,101 -83,109 -53,7 -102,-30 -109,-83l-55 -406c-8,-53 30,-102 83,-109 53,-7 101,30 109,83l55 406z"/>
      <path class="fil11" d="M17828 2184c7,53 -30,102 -83,109 -53,8 -102,-30 -109,-83l-55 -405c-7,-53 30,-102 83,-109 53,-8 102,30 109,83l55 405z"/>
     </g>
    </g>
    <path class="fil11" d="M16431 2565c46,27 155,160 127,206 -27,46 13,89 -33,62l-545 -312c-46,-28 -61,-87 -33,-133 27,-46 87,-61 133,-34l351 211z"/>
    <g>
     <path class="fil11" d="M13274 2662c-12,153 -147,267 -300,254 -153,-13 -266,-148 -253,-301 13,-153 147,-266 300,-253 153,13 266,147 253,300z"/>
     <path class="fil11" d="M14772 2898c83,463 -225,905 -688,987 -463,82 -904,-226 -987,-688l-166 -931c-82,-463 226,-905 689,-987 462,-83 904,226 986,688l166 931z"/>
     <g>
      <path class="fil12" d="M13511 3163c0,0 4,11 9,30 6,18 15,44 25,74 12,30 25,65 43,100 9,17 19,34 30,50 12,16 25,31 39,45l10 8 13 10c8,5 16,10 24,15 17,9 34,16 52,19 35,7 70,1 99,-10 29,-11 52,-25 67,-36 16,-11 24,-18 24,-18 0,0 -5,10 -17,25 -12,15 -31,37 -61,55 -29,19 -71,34 -118,30 -23,-3 -47,-9 -68,-19 -11,-5 -22,-12 -32,-18l-14 -10c-6,-4 -10,-8 -15,-12 -19,-16 -34,-35 -46,-54 -13,-19 -24,-40 -32,-60 -16,-40 -25,-79 -29,-112 -10,-67 -3,-112 -3,-112z"/>
     </g>
     <path class="fil13" d="M13382 1783c0,0 1783,863 1658,-960 0,0 -289,479 -844,247 -669,-280 -1323,116 -1216,451 0,0 -241,433 18,1118 0,0 283,-325 384,-856z"/>
     <path class="fil13" d="M14448 2477c7,56 -32,106 -87,112 -55,7 -105,-32 -112,-87l-21 -173c-7,-56 32,-106 87,-112 55,-7 106,32 112,87l21 173z"/>
     <g>
      <g>
       <path class="fil12" d="M13781 2448c0,0 -27,3 -67,-1 -19,-1 -42,-4 -67,-8 -24,-4 -50,-9 -76,-16 -25,-6 -51,-14 -75,-22 -24,-9 -46,-17 -64,-26 -37,-16 -61,-31 -61,-31 0,0 28,-2 68,1 20,2 42,5 67,9 24,4 49,9 75,16 25,6 51,14 74,22 24,8 46,16 65,25 37,16 61,31 61,31z"/>
      </g>
      <g>
       <path class="fil12" d="M13781 2448c0,0 -19,6 -48,11 -29,6 -67,11 -106,14 -38,2 -77,3 -106,2 -30,-1 -49,-4 -49,-4 0,0 19,-6 47,-12 29,-5 68,-10 106,-13 39,-3 78,-3 107,-2 29,1 49,4 49,4z"/>
      </g>
      <g>
       <path class="fil12" d="M13781 2448c0,0 -17,18 -46,39 -29,22 -69,45 -111,66 -42,20 -86,36 -121,44 -34,9 -59,11 -59,11 0,0 17,-18 46,-39 28,-21 69,-45 111,-65 42,-20 86,-36 121,-45 34,-9 59,-11 59,-11z"/>
      </g>
     </g>
     <path class="fil14" d="M14014 2345c40,-4 250,611 250,611 19,55 39,119 -16,138 -55,20 -259,31 -279,-24 0,0 -13,-719 45,-725z"/>
    </g>
    <g>
     <path class="fil15" d="M19349 1761c-30,-270 -129,-481 -221,-471 -3,0 -5,1 -7,2 -1,0 -3,-1 -4,0l-4697 906c-58,7 -95,94 -82,194 12,100 70,175 128,167l4771 -290c0,0 0,0 1,0 0,0 0,0 0,0l3 0c1,-1 3,-2 4,-2 87,-22 134,-244 104,-506z"/>
     <g>
      <path class="fil16" d="M19317 1761c27,244 -10,449 -84,457 -74,8 -156,-183 -184,-427 -27,-245 11,-449 84,-458 74,-8 156,183 184,428z"/>
     </g>
     <g>
      <path class="fil17" d="M19208 1583c-2,118 -32,215 -68,214 -35,0 -64,-97 -63,-216 2,-119 32,-215 68,-214 35,0 64,97 63,216z"/>
     </g>
     <path class="fil6" d="M14338 2392c12,100 70,175 128,167l4771 -290c0,0 0,0 1,0 0,0 0,0 0,0l3 0c1,-1 3,-2 4,-2 87,-22 134,-244 104,-506l-5011 631z"/>
    </g>
    <g>
     <g>
      <path class="fil11" d="M16938 2605c-75,366 -138,265 -358,265 -146,-8 -403,-205 -403,-399l3 0c-22,-414 179,-400 400,-400 220,0 321,-170 366,119 0,0 20,281 -8,415z"/>
      <path class="fil11" d="M16304 2281c14,51 1,222 -51,236 -52,14 -53,73 -67,22l-176 -603c-14,-51 16,-104 68,-118 52,-15 105,16 119,68l107 395z"/>
      <path class="fil11" d="M16504 2167c14,51 -17,104 -68,118 -52,15 -105,-16 -119,-68l-108 -395c-14,-51 17,-105 68,-119 52,-14 105,17 119,68l108 396z"/>
      <path class="fil11" d="M16698 2132c7,53 -30,101 -83,109 -53,7 -102,-30 -109,-83l-55 -406c-7,-53 30,-102 83,-109 53,-7 102,30 109,83l55 406z"/>
      <path class="fil11" d="M16945 2184c7,53 -30,102 -83,109 -53,8 -102,-30 -109,-83l-55 -405c-7,-53 30,-102 83,-109 53,-8 102,30 109,83l55 405z"/>
     </g>
     <path class="fil8" d="M16227 2673c-272,1520 -2383,1366 -3049,865l-38 632c121,111 223,187 363,262 1375,729 3305,-217 3435,-1769 0,0 -100,-116 -347,-95 -302,26 -364,105 -364,105z"/>
    </g>
    <path class="fil11" d="M17238 2436l-109 -350c-16,-51 -70,-80 -122,-64 -51,16 -79,70 -63,121l107 322c57,-28 121,-40 187,-29z"/>
   </g>
  </g>
  <g id="_1877950652176">
   <ellipse class="fil18" cx="14368" cy="10887" rx="3826" ry="3731"/>
   <ellipse class="fil19" cx="14362" cy="10888" rx="2946" ry="2873"/>
   <g>
    <path class="fil20" d="M14390 8708c1218,0 2205,977 2205,2181 0,1205 -987,2182 -2205,2182 -1218,0 -2205,-977 -2205,-2182 0,-1204 987,-2181 2205,-2181z"/>
    <path class="fil20" d="M12658 9522c115,-146 300,-330 466,-443 373,-252 594,-292 594,-292 -14,20 552,-121 567,-53 53,250 -208,1180 -983,1763 -124,93 -238,174 -335,217 -237,105 95,804 -276,1734 -122,307 -654,854 -634,825 59,-83 314,-744 295,-969 -64,-776 -184,-1064 -166,-1488 23,-542 224,-982 472,-1294z"/>
    <path class="fil20" d="M15992 7715c494,-32 1074,276 1127,942 21,272 -82,494 -188,637 -193,262 -511,341 -513,337 -371,-618 -992,-889 -1325,-994 -31,-10 -7,-430 306,-675 220,-172 413,-235 593,-247z"/>
   </g>
  </g>
 </g>
</svg>
