<?xml version="1.0" encoding="UTF-8"?>
<!DOCTYPE svg PUBLIC "-//W3C//DTD SVG 1.1//EN" "http://www.w3.org/Graphics/SVG/1.1/DTD/svg11.dtd">
<!-- Creator: CorelDRAW X7 -->
<svg xmlns="http://www.w3.org/2000/svg" xml:space="preserve" width="278.492mm" height="150.762mm" version="1.1" style="shape-rendering:geometricPrecision; text-rendering:geometricPrecision; image-rendering:optimizeQuality; fill-rule:evenodd; clip-rule:evenodd"
viewBox="0 0 28007 15162"
 xmlns:xlink="http://www.w3.org/1999/xlink">
 <defs>
  <style type="text/css">
   <![CDATA[
    .str0 {stroke:#777587;stroke-width:151.947}
    .str2 {stroke:#2F304F;stroke-width:99.7224}
    .str1 {stroke:#2F304F;stroke-width:32.4128;stroke-linecap:round}
    .fil3 {fill:none}
    .fil7 {fill:#FEFEFE}
    .fil0 {fill:#FEFEFE}
    .fil11 {fill:#FEC64E}
    .fil24 {fill:#FBC7B1}
    .fil67 {fill:#FCBD68}
    .fil23 {fill:#FABBA6}
    .fil69 {fill:#FBB249}
    .fil53 {fill:#F3786D}
    .fil21 {fill:#F2746A}
    .fil58 {fill:#F05950}
    .fil45 {fill:#F05251}
    .fil55 {fill:#FCDA6D}
    .fil70 {fill:#FCD73D}
    .fil66 {fill:#F18A65}
    .fil71 {fill:#F1845D}
    .fil10 {fill:#EB5D4F}
    .fil52 {fill:#F3F4F6}
    .fil49 {fill:#ECEDEF}
    .fil35 {fill:#E99676}
    .fil54 {fill:#E9EAEE}
    .fil40 {fill:#E2825B}
    .fil62 {fill:#D5423E}
    .fil68 {fill:#D4403E}
    .fil30 {fill:#DDDEDE}
    .fil61 {fill:#C95254}
    .fil59 {fill:#C74F51}
    .fil60 {fill:#B94443}
    .fil50 {fill:#C2C5DB}
    .fil16 {fill:#C1BFD6}
    .fil36 {fill:#A95249}
    .fil44 {fill:#A33B48}
    .fil42 {fill:#A45B47}
    .fil28 {fill:#B2B1C4}
    .fil37 {fill:#89433F}
    .fil33 {fill:#AEABC5}
    .fil22 {fill:#825547}
    .fil8 {fill:#A5A2B2}
    .fil56 {fill:#95B6E0}
    .fil12 {fill:#A3CD46}
    .fil38 {fill:#85475D}
    .fil17 {fill:#91B0DC}
    .fil26 {fill:#6B4C48}
    .fil19 {fill:#89B4A4}
    .fil64 {fill:#7E4D69}
    .fil39 {fill:#74465E}
    .fil77 {fill:#6A4154}
    .fil46 {fill:#807F96}
    .fil31 {fill:#7B7C89}
    .fil5 {fill:#797786}
    .fil27 {fill:#777587}
    .fil9 {fill:#738DC4}
    .fil72 {fill:#759F4A}
    .fil14 {fill:#6C9074}
    .fil76 {fill:#69B362}
    .fil47 {fill:#5F5F6B}
    .fil29 {fill:#615E6E}
    .fil63 {fill:#667AB3}
    .fil74 {fill:#598346}
    .fil73 {fill:#558849}
    .fil34 {fill:#545367}
    .fil75 {fill:#486F45}
    .fil6 {fill:#3D3D47}
    .fil15 {fill:#47485D}
    .fil43 {fill:#383947}
    .fil41 {fill:#32333D}
    .fil57 {fill:#4D5CA7}
    .fil18 {fill:#495AA6}
    .fil13 {fill:#3F4A75}
    .fil51 {fill:#3B539F}
    .fil1 {fill:#00AFEF}
    .fil32 {fill:#35436F}
    .fil65 {fill:#323C60}
    .fil48 {fill:#303956}
    .fil20 {fill:#384275}
    .fil4 {fill:#313758}
    .fil25 {fill:#2F304F}
    .fil2 {fill:#3E4095}
   ]]>
  </style>
 </defs>
 <g id="Layer_x0020_1">
  <metadata id="CorelCorpID_0Corel-Layer"/>
  <g id="_2702396695856">
   <rect class="fil0" width="28007" height="15162"/>
   <polygon class="fil1" points="0,4818 26145,2554 0,0 "/>
   <polygon class="fil2" points="0,4818 28007,0 0,0 "/>
   <g>
    <line class="fil3 str0" x1="9037" y1="13110" x2="25967" y2= "13110" />
    <polygon class="fil4" points="11487,7447 12923,7447 12923,4360 11487,4360 "/>
    <path class="fil5" d="M9893 6364l4603 0 0 -2972c0,-104 -85,-188 -189,-188l-4226 0c-104,0 -188,84 -188,188l0 2972z"/>
    <path class="fil5" d="M10335 6826l3806 0c220,0 397,-178 397,-398l0 -152 -4601 0 0 152c0,220 178,398 398,398z"/>
    <path class="fil6" d="M14657 3392l0 2972 -1130 -18 -1182 -19 -373 -6 -1195 -19 -723 -12 0 -2898c0,-104 84,-188 188,-188l4226 0c105,0 189,84 189,188z"/>
    <path class="fil7" d="M10226 3476l0 2622c0,10 8,18 17,18l4224 0c10,0 18,-8 18,-18l0 -2622c0,-9 -8,-17 -18,-17l-4224 0c-9,0 -17,8 -17,17z"/>
    <path class="fil8" d="M10452 6826l3807 0c219,0 397,-178 397,-398l0 -152 -4601 0 0 152c0,220 178,398 397,398z"/>
    <path class="fil8" d="M11451 7459l1924 0c59,0 107,-48 107,-107 0,-59 -48,-107 -107,-107l-1924 0c-59,0 -107,48 -107,107 0,59 48,107 107,107z"/>
    <path class="fil9" d="M14283 3920l-3784 0c-31,0 -57,-26 -57,-57l0 -221c0,-31 26,-57 57,-57l3784 0c31,0 57,26 57,57l0 221c0,31 -26,57 -57,57z"/>
    <path class="fil10" d="M10737 3747c0,41 -31,74 -71,74 -39,-1 -71,-33 -71,-74 0,-40 32,-73 71,-73 40,0 71,33 71,73z"/>
    <path class="fil11" d="M10998 3747c0,41 -32,74 -72,74 -39,-1 -71,-33 -71,-74 0,-40 32,-73 71,-73 40,0 72,33 72,73z"/>
    <path class="fil12" d="M11258 3747c0,41 -32,74 -71,74 -40,-1 -72,-33 -72,-74 0,-40 32,-73 72,-73 39,0 71,33 71,73z"/>
    <path class="fil13" d="M11731 4507l-1264 0c-19,0 -35,-15 -35,-34l0 -386c0,-19 16,-34 35,-34l1264 0c19,0 34,15 34,34l0 386c0,19 -15,34 -34,34z"/>
    <path class="fil14" d="M13283 5081l-1264 0c-19,0 -35,-15 -35,-34l0 -386c0,-19 16,-34 35,-34l1264 0c19,0 34,15 34,34l0 386c0,19 -15,34 -34,34z"/>
    <path class="fil14" d="M14306 4507l-765 0c-19,0 -35,-15 -35,-34l0 -386c0,-19 16,-34 35,-34l765 0c19,0 34,15 34,34l0 386c0,19 -15,34 -34,34z"/>
    <path class="fil10" d="M14306 5090l-765 0c-19,0 -35,-15 -35,-34l0 -386c0,-19 16,-34 35,-34l765 0c19,0 34,15 34,34l0 386c0,19 -15,34 -34,34z"/>
    <polygon class="fil4" points="13327,4449 11994,4449 11994,4417 13327,4417 "/>
    <polygon class="fil4" points="13327,4333 11994,4333 11994,4301 13327,4301 "/>
    <polygon class="fil4" points="13327,4218 11994,4218 11994,4185 13327,4185 "/>
    <polygon class="fil4" points="13327,4102 11994,4102 11994,4069 13327,4069 "/>
    <path class="fil10" d="M11731 5646l-1264 0c-19,0 -35,-15 -35,-34l0 -386c0,-19 16,-34 35,-34l1264 0c19,0 34,15 34,34l0 386c0,19 -15,34 -34,34z"/>
    <polygon class="fil4" points="13327,5588 11994,5588 11994,5556 13327,5556 "/>
    <polygon class="fil4" points="13327,5472 11994,5472 11994,5440 13327,5440 "/>
    <polygon class="fil4" points="13327,5357 11994,5357 11994,5324 13327,5324 "/>
    <polygon class="fil4" points="13327,5241 11994,5241 11994,5208 13327,5208 "/>
    <polygon class="fil4" points="11760,5005 10427,5005 10427,4973 11760,4973 "/>
    <polygon class="fil4" points="11760,4890 10427,4890 10427,4857 11760,4857 "/>
    <polygon class="fil4" points="11760,4774 10427,4774 10427,4741 11760,4741 "/>
    <polygon class="fil4" points="11760,4658 10427,4658 10427,4625 11760,4625 "/>
    <path class="fil15" d="M12347 6276l-1568 0 74 -160 1568 0 -74 160zm925 -2817l-1198 0 118 -255 944 0c39,97 86,182 136,255z"/>
    <path class="fil7" d="M12421 6116l-1568 0 215 -470 663 0c19,0 34,-15 34,-34l0 -386c0,-19 -15,-34 -34,-34l-454 0 86 -187 397 0 0 -32 -382 0 39 -83 343 0 0 -33 -329 0 39 -83 290 0 0 -33 -275 0 38 -83 237 0 0 -33 -222 0 54 -118 139 0c19,0 34,-15 34,-34l0 -342 97 -211 1577 0 -123 265 -1322 0 0 33 1307 0 -38 83 -1269 0 0 32 1253 0 -38 84 -1215 0 0 32 1200 0 -83 178 -1092 0c-19,0 -35,15 -35,34l0 386c0,19 16,34 35,34l882 0 -59 127 -848 0 0 33 833 0 -39 83 -794 0 0 33 779 0 -38 83 -741 0 0 32 726 0 -39 84 -687 0 0 32 672 0 -245 528zm-427 -2047l0 33 1333 0 0 -33 -1333 0zm1375 -484l-1353 0 58 -126 1198 0c32,47 65,89 97,126z"/>
    <polygon class="fil16" points="12345,6280 10777,6280 10779,6276 12347,6276 "/>
    <path class="fil17" d="M13439 3920l-1577 0 154 -335 1353 0c57,66 112,116 155,151l-85 184z"/>
    <path class="fil18" d="M11731 4507l-139 0 173 -376 0 342c0,19 -15,34 -34,34z"/>
    <path class="fil19" d="M12901 5081l-882 0c-19,0 -35,-15 -35,-34l0 -386c0,-19 16,-34 35,-34l1092 0 -210 454z"/>
    <polygon class="fil20" points="13194,4449 11994,4449 11994,4417 13209,4417 "/>
    <polygon class="fil20" points="13247,4333 11994,4333 11994,4301 13263,4301 "/>
    <polygon class="fil20" points="13301,4218 11994,4218 11994,4185 13316,4185 "/>
    <polygon class="fil20" points="13327,4102 11994,4102 11994,4069 13327,4069 "/>
    <path class="fil21" d="M11731 5646l-663 0 209 -454 454 0c19,0 34,15 34,34l0 386c0,19 -15,34 -34,34z"/>
    <polygon class="fil20" points="12666,5588 11994,5588 11994,5556 12681,5556 "/>
    <polygon class="fil20" points="12720,5472 11994,5472 11994,5440 12735,5440 "/>
    <polygon class="fil20" points="12773,5357 11994,5357 11994,5324 12788,5324 "/>
    <polygon class="fil20" points="12827,5241 11994,5241 11994,5208 12842,5208 "/>
    <polygon class="fil20" points="11760,5005 11363,5005 11378,4973 11760,4973 "/>
    <polygon class="fil20" points="11760,4890 11417,4890 11431,4857 11760,4857 "/>
    <polygon class="fil20" points="11760,4774 11470,4774 11485,4741 11760,4741 "/>
    <polygon class="fil20" points="11760,4658 11523,4658 11538,4625 11760,4625 "/>
    <path class="fil22" d="M14804 1673l295 182c214,132 290,406 176,630 -23,44 -37,73 -34,70 11,-13 -452,-878 -452,-878l15 -4z"/>
    <path class="fil23" d="M14038 4491l-153 0c-140,0 -254,-114 -254,-254l0 -717c0,-140 114,-254 254,-254l153 0c139,0 254,114 254,254l0 717c0,140 -115,254 -254,254z"/>
    <path class="fil22" d="M15236 2555c6,57 -264,155 -267,216l44 122c-332,-120 -39,63 -39,64 -99,292 -65,454 -346,565 -141,56 -295,81 -455,70 -79,-6 -155,0 -227,6 -124,9 -237,19 -336,-28 -32,-15 -63,-37 -92,-65 -55,-55 -104,-116 -145,-181 -16,-26 -32,-52 -46,-79 -85,-164 -259,-646 -245,-844 40,-558 574,-931 1189,-889 16,1 32,2 48,2 332,24 616,200 789,456 9,13 18,27 27,42l0 0c50,81 77,429 77,429 11,37 19,75 24,114z"/>
    <path class="fil24" d="M15211 2733l-8 153 -13 254 -21 90c-2,40 -22,251 -29,289 -70,359 -306,435 -672,481 -11,2 -23,3 -34,3 -39,4 -78,5 -119,3 -39,-2 -77,-7 -115,-14 -73,-13 -143,-37 -208,-68l-1 0c-162,-76 -295,-201 -381,-354 -66,-116 -105,-248 -109,-388 -1,-9 -1,-19 -1,-29 0,-10 0,-22 1,-34l0 -6 1 -28 4 -72 12 -249 1 -3 0 0 2 -47 2 -35 2 -34 0 -8c4,-58 15,-113 33,-167 10,-37 25,-74 40,-109 3,-5 5,-10 7,-15 13,-29 28,-58 44,-85l0 0c62,-103 145,-192 243,-261 20,-14 40,-27 60,-39 143,-84 311,-129 488,-120 147,8 256,52 375,123 71,43 136,97 192,158 80,86 132,188 170,300 2,7 4,13 6,19 11,37 19,75 23,114 7,57 8,117 5,178z"/>
    <path class="fil22" d="M14902 1974c179,495 -294,455 -316,682 -2,25 -11,63 -18,249l-36 117c-11,36 -44,61 -82,61 -47,0 -85,-38 -85,-85l0 -3 4 -185 -93 244c-66,177 -167,336 -294,471 -106,111 -230,205 -368,277 0,0 -577,-343 -577,-1126 0,-62 4,-127 12,-195 7,-61 17,-118 31,-171 239,-973 1434,-641 1549,-598 121,46 273,262 273,262z"/>
    <path class="fil24" d="M15313 3258l-1 13c-1,53 -48,96 -162,92l16 -418c93,143 138,225 147,313z"/>
    <path class="fil22" d="M15250 2752l-256 0c-29,0 -54,-24 -54,-54 1,-30 25,-54 54,-54l256 0c30,0 54,24 54,54 0,30 -24,54 -54,54z"/>
    <path class="fil25" d="M15106 2944l0 0c-21,0 -38,-17 -38,-38l0 -57c0,-21 17,-39 38,-39 22,0 39,18 39,39l0 57c0,21 -17,38 -39,38z"/>
    <path class="fil26" d="M13614 3802c0,0 -36,-21 -90,-66 -43,-35 -98,-85 -155,-151 -157,-180 -332,-478 -332,-909 0,-62 4,-127 12,-195 7,-61 17,-118 31,-171 25,149 92,375 264,654 261,424 545,535 638,561 -75,79 -160,149 -251,209 -33,21 -66,41 -100,60 -6,2 -11,5 -17,8z"/>
    <path class="fil22" d="M15147 3493l-7 292c0,250 -295,350 -515,326l-349 -38 35 -302 96 -580 -154 -432 317 131 0 1c-24,343 222,621 566,605l11 -3z"/>
    <path class="fil23" d="M14344 2748c35,0 63,29 63,64l-1 218 -2 190 -75 -1c-5,0 -11,0 -16,-1 -125,-9 -223,-118 -223,-243 0,-65 28,-120 72,-163 39,-38 92,-60 151,-63l0 0c7,-1 13,-2 19,-1l12 0z"/>
    <polygon class="fil25" points="12099,9484 14110,9484 14110,9113 12099,9113 "/>
    <polygon class="fil13" points="11414,12571 11414,12713 "/>
    <polygon class="fil27" points="19786,9515 21627,9515 21627,9145 19786,9145 "/>
    <polygon class="fil27" points="21749,13104 21330,13104 21330,7884 21749,7884 "/>
    <polygon class="fil28" points="20068,13104 19649,13104 19649,7853 20068,7853 "/>
    <polygon class="fil27" points="20068,9881 19649,9881 19649,7641 20068,7641 "/>
    <polygon class="fil27" points="9742,9515 11584,9515 11584,9145 9742,9145 "/>
    <polygon class="fil27" points="11706,13104 11287,13104 11287,7884 11706,7884 "/>
    <polygon class="fil27" points="10024,13104 9606,13104 9606,7853 10024,7853 "/>
    <polygon class="fil29" points="18736,7351 17354,7351 17354,4378 18736,4378 "/>
    <path class="fil30" d="M20206 6375l-4543 0 0 -2775c0,-101 81,-182 181,-182l4181 0c100,0 181,81 181,182l0 2775z"/>
    <path class="fil30" d="M19779 6819l-3777 0c-211,0 -382,-171 -382,-383l0 -146 4542 0 0 146c0,212 -171,383 -383,383z"/>
    <path class="fil31" d="M20050 3599l0 2776 -4544 0 0 -2776c0,-100 81,-181 181,-181l4181 0c100,0 182,81 182,181z"/>
    <path class="fil32" d="M19884 3594l0 2525c0,9 -8,16 -17,16l-4179 0c-9,0 -17,-7 -17,-16l0 -2525c0,-10 8,-17 17,-17l4179 0c9,0 17,7 17,17z"/>
    <path class="fil33" d="M20049 6290l0 146c0,154 -90,287 -221,347 -49,23 -104,36 -162,36l-3777 0c-211,0 -382,-171 -382,-383l0 -146 4542 0z"/>
    <polygon class="fil9" points="17327,3938 15915,3938 15915,3889 17327,3889 "/>
    <polygon class="fil30" points="18607,3938 17939,3938 17939,3889 18607,3889 "/>
    <polygon class="fil11" points="19572,3938 18904,3938 18904,3889 19572,3889 "/>
    <polygon class="fil9" points="18825,3938 18667,3938 18667,3889 18825,3889 "/>
    <polygon class="fil10" points="17861,3938 17393,3938 17393,3889 17861,3889 "/>
    <polygon class="fil9" points="17327,5189 15915,5189 15915,5140 17327,5140 "/>
    <polygon class="fil30" points="18607,5189 17939,5189 17939,5140 18607,5140 "/>
    <polygon class="fil11" points="19572,5189 18904,5189 18904,5140 19572,5140 "/>
    <polygon class="fil9" points="18825,5189 18667,5189 18667,5140 18825,5140 "/>
    <polygon class="fil8" points="17861,5189 17393,5189 17393,5140 17861,5140 "/>
    <polygon class="fil9" points="18161,4772 19572,4772 19572,4723 18161,4723 "/>
    <polygon class="fil30" points="16880,4772 17549,4772 17549,4723 16880,4723 "/>
    <polygon class="fil11" points="15915,4772 16584,4772 16584,4723 15915,4723 "/>
    <polygon class="fil9" points="16663,4772 16821,4772 16821,4723 16663,4723 "/>
    <polygon class="fil8" points="17626,4772 18094,4772 18094,4723 17626,4723 "/>
    <polygon class="fil10" points="16445,4146 15915,4146 15915,4097 16445,4097 "/>
    <polygon class="fil9" points="17725,4146 17498,4146 17498,4097 17725,4097 "/>
    <polygon class="fil30" points="19572,4146 18463,4146 18463,4097 19572,4097 "/>
    <polygon class="fil9" points="18384,4146 17785,4146 17785,4097 18384,4097 "/>
    <polygon class="fil9" points="17420,4146 16511,4146 16511,4097 17420,4097 "/>
    <polygon class="fil9" points="16445,5397 15915,5397 15915,5348 16445,5348 "/>
    <polygon class="fil9" points="17725,5397 17498,5397 17498,5348 17725,5348 "/>
    <polygon class="fil9" points="19572,5397 18463,5397 18463,5348 19572,5348 "/>
    <polygon class="fil9" points="18384,5397 17785,5397 17785,5348 18384,5348 "/>
    <polygon class="fil9" points="17420,5397 16511,5397 16511,5348 17420,5348 "/>
    <polygon class="fil10" points="16445,4980 15915,4980 15915,4931 16445,4931 "/>
    <polygon class="fil9" points="17725,4980 17498,4980 17498,4931 17725,4931 "/>
    <polygon class="fil30" points="19572,4980 18463,4980 18463,4931 19572,4931 "/>
    <polygon class="fil9" points="18384,4980 17785,4980 17785,4931 18384,4931 "/>
    <polygon class="fil9" points="17420,4980 16511,4980 16511,4931 17420,4931 "/>
    <polygon class="fil30" points="16445,4355 15915,4355 15915,4306 16445,4306 "/>
    <polygon class="fil9" points="17420,4355 16511,4355 16511,4306 17420,4306 "/>
    <polygon class="fil30" points="16891,4563 17420,4563 17420,4514 16891,4514 "/>
    <polygon class="fil9" points="15915,4563 16825,4563 16825,4514 15915,4514 "/>
    <path class="fil34" d="M18704 7429l-1853 0c-56,0 -102,-46 -102,-103l0 0c0,-56 46,-103 102,-103l1853 0c57,0 103,47 103,103l0 0c0,57 -46,103 -103,103z"/>
    <path class="fil35" d="M22107 7880l-5841 0 0 -302c0,-91 74,-165 165,-165l5511 0c91,0 165,74 165,165l0 302z"/>
    <path class="fil36" d="M20404 7578l0 302 -11246 0 0 -302c0,-91 74,-165 165,-165l10916 0c91,0 165,74 165,165z"/>
    <path class="fil37" d="M17150 7413c-89,145 -195,319 -286,467l-2752 0 38 -467 3000 0z"/>
    <polygon class="fil38" points="22692,13104 25582,13104 25582,9482 22692,9482 "/>
    <polygon class="fil39" points="21668,13104 24508,13104 24508,9482 21668,9482 "/>
    <polygon class="fil40" points="21635,10733 24330,10733 24330,9754 21635,9754 "/>
    <polygon class="fil40" points="21635,11883 24330,11883 24330,10903 21635,10903 "/>
    <polygon class="fil40" points="21635,13104 24330,13104 24330,12053 21635,12053 "/>
    <path class="fil7" d="M22492 10296l674 0c29,0 53,-24 53,-53 0,-28 -24,-52 -53,-52l-674 0c-28,0 -52,24 -52,52 0,29 24,53 52,53z"/>
    <path class="fil7" d="M22466 11437l674 0c29,0 52,-23 52,-52 0,-29 -23,-52 -52,-52l-674 0c-29,0 -52,23 -52,52 0,29 23,52 52,52z"/>
    <path class="fil7" d="M22466 12579l674 0c29,0 52,-24 52,-52 0,-29 -23,-53 -52,-53l-674 0c-29,0 -52,24 -52,53 0,28 23,52 52,52z"/>
    <path class="fil38" d="M15078 13325l1350 15c80,1 146,-64 147,-144 1,-62 -38,-118 -96,-139l-666 -240 -730 10 -5 498z"/>
    <path class="fil25" d="M16454 13378l-1366 -5 0 -98 1465 5c-1,54 -45,98 -99,98z"/>
    <line class="fil3 str1" x1="15796" y1="13014" x2="15955" y2= "12845" />
    <line class="fil3 str1" x1="15912" y1="13064" x2="16071" y2= "12895" />
    <line class="fil3 str1" x1="16023" y1="13129" x2="16202" y2= "12938" />
    <path class="fil41" d="M15032 12882c78,-1317 57,-2535 -46,-2781 -105,-153 -925,-485 -1745,-521l384 -837c1075,54 1843,457 2112,918 114,195 212,587 159,1930 -28,703 -62,1254 -62,1254l-802 37z"/>
    <path class="fil42" d="M16280 13359l1350 9c80,1 146,-64 147,-144 0,-62 -39,-118 -97,-139l-667 -237 -730 12 -3 499z"/>
    <path class="fil25" d="M17657 13406l-1389 1 0 -98 1486 -1c0,54 -43,98 -97,98z"/>
    <line class="fil3 str1" x1="16997" y1="13045" x2="17155" y2= "12876" />
    <line class="fil3 str1" x1="17113" y1="13094" x2="17272" y2= "12924" />
    <line class="fil3 str1" x1="17224" y1="13160" x2="17403" y2= "12967" />
    <path class="fil41" d="M16231 12882c78,-1317 57,-2535 -45,-2781 -106,-153 -926,-485 -1745,-521l383 -837c1075,54 1844,457 2113,918 113,195 212,587 158,1930 -27,703 -62,1254 -62,1254l-802 37z"/>
    <path class="fil41" d="M15076 8984c0,147 -53,282 -140,388 -112,135 -281,221 -470,221l-1025 0c-30,0 -60,-2 -89,-7 -75,-10 -146,-35 -210,-71 -11,-6 -22,-13 -33,-20 -167,-109 -277,-297 -277,-511l19 -325 2207 -20 18 345z"/>
    <path class="fil23" d="M15780 7247l528 -84c38,-6 65,-43 59,-82 -6,-38 -43,-65 -82,-59l-528 85c-38,6 -65,43 -59,81 6,39 43,65 82,59z"/>
    <path class="fil23" d="M15948 7390l424 -68c38,-6 65,-43 59,-81 -6,-39 -43,-65 -82,-59l-424 68c-38,6 -65,42 -59,81 7,39 43,65 82,59z"/>
    <path class="fil23" d="M15850 7575l502 -80c38,-6 65,-43 59,-81 -7,-39 -43,-65 -82,-59l-502 80c-38,6 -65,43 -59,81 7,39 43,65 82,59z"/>
    <path class="fil23" d="M16008 7111c-6,0 -71,-1 -141,-2 -121,-2 -241,25 -350,79l-208 102c0,0 119,354 135,357 402,73 540,-110 540,-110l24 -426z"/>
    <polygon class="fil7" points="15697,7689 15518,7689 15518,7109 15697,7109 "/>
    <path class="fil41" d="M14350 7752c-420,0 -805,-246 -981,-628l-9 -19 -550 -1680 678 -222 536 1637c63,123 191,200 330,198l1168 -11 7 713 -1168 11c-4,0 -7,1 -11,1z"/>
    <path class="fil23" d="M18163 7059c-43,-78 -109,-142 -189,-181l-2 -1c-109,-53 -229,-80 -350,-78l-232 5c0,0 -59,503 -56,487 6,-33 568,-24 825,-19 56,2 91,-58 64,-107l-60 -106z"/>
    <polygon class="fil7" points="17471,7359 17249,7359 17249,6766 17471,6766 "/>
    <path class="fil43" d="M16165 7427c-420,0 -804,-245 -981,-627l-792 -1714 647 -300 792 1715c61,131 192,215 338,213l1169 -11 7 713 -1169 11c-4,0 -7,0 -11,0z"/>
    <path class="fil43" d="M15265 5421l-14 1497 -16 1906c0,0 -41,46 -164,110 -106,56 -273,126 -528,192 -296,77 -714,89 -1071,80 -394,-9 -713,-44 -713,-44l8 -3741c0,-527 381,-964 882,-1053 61,-10 123,-15 186,-15l361 0c590,0 1069,478 1069,1068z"/>
    <polygon class="fil28" points="13959,10333 13959,12403 13598,12403 13598,10333 "/>
    <path class="fil27" d="M13598 10450l0 453 361 -132 0 -306c-90,-5 -264,-11 -361,-15z"/>
    <path class="fil6" d="M14888 10512l-2159 0c-111,0 -202,-91 -202,-201 0,-111 91,-202 202,-202l2159 0c111,0 201,91 201,202 0,110 -90,201 -201,201z"/>
    <path class="fil6" d="M15307 13072l-226 0c0,-254 -219,-461 -488,-461l-1644 0c-270,0 -489,207 -489,461l-226 0c0,-372 321,-674 715,-674l1644 0c393,0 714,302 714,674z"/>
    <polygon class="fil6" points="14039,12403 13513,12403 13513,12079 14039,12079 "/>
    <path class="fil25" d="M12526 13277c0,98 -84,177 -187,177 -104,0 -188,-79 -188,-177 0,-97 84,-176 188,-176 103,0 187,79 187,176z"/>
    <path class="fil4" d="M12609 13262l-513 0 0 -47c0,-132 107,-239 239,-239l34 0c133,0 240,107 240,239l0 47z"/>
    <path class="fil25" d="M15392 13277c0,98 -84,177 -187,177 -104,0 -188,-79 -188,-177 0,-97 84,-176 188,-176 103,0 187,79 187,176z"/>
    <path class="fil4" d="M15475 13262l-513 0 0 -47c0,-132 107,-239 239,-239l35 0c132,0 239,107 239,239l0 47z"/>
    <polygon class="fil6" points="13936,13102 13637,13102 13637,12464 13936,12464 "/>
    <path class="fil25" d="M13980 13277c0,98 -84,177 -187,177 -104,0 -187,-79 -187,-177 0,-97 83,-176 187,-176 103,0 187,79 187,176z"/>
    <path class="fil4" d="M14063 13262l-513 0 0 -47c0,-132 107,-239 240,-239l34 0c132,0 239,107 239,239l0 47z"/>
    <path class="fil44" d="M10907 6438l483 3486c29,212 207,372 421,379l1763 20 -980 -4384 -1251 -1c-267,0 -473,235 -436,500z"/>
    <path class="fil45" d="M15655 10323l-2450 0c-209,0 -380,-171 -380,-380 0,-209 171,-380 380,-380l2450 0c209,0 380,171 380,380 0,209 -171,380 -380,380z"/>
    <path class="fil41" d="M13344 5308c-47,688 86,3166 128,3898 -394,-9 -713,-44 -713,-44l8 -3741c0,-527 381,-964 882,-1053 0,0 -249,131 -305,940z"/>
    <polygon class="fil7" points="14572,4417 13470,4417 13470,4109 14572,4240 "/>
    <path class="fil45" d="M12793 9843l-512 -3575c-22,-160 97,-307 266,-329 169,-21 326,91 349,251l512 3575c23,159 -97,307 -266,329 -169,21 -256,141 -349,-251z"/>
    <path class="fil41" d="M15251 6918l-16 1906c0,0 -41,46 -164,110l-254 -2872c0,0 233,581 434,856z"/>
    <path class="fil46" d="M18504 6787l0 32 -32 0c10,-10 21,-21 32,-32z"/>
    <path class="fil47" d="M19567 6290l-587 0c49,-51 98,-103 147,-155l482 0 -42 155z"/>
    <path class="fil48" d="M19609 6135l-482 0c275,-291 551,-589 684,-753l6 5 -208 748z"/>
    <path class="fil46" d="M19420 6819l-135 0 0 -326c0,-41 -33,-75 -75,-75l-352 0c40,-42 81,-85 122,-128l0 0 587 0 -147 529z"/>
    <path class="fil30" d="M19386 7408l2363 0c14,-19 24,-41 30,-64l529 -1908c25,-91 -43,-181 -138,-181l-2079 0c-64,0 -120,43 -137,104l-568 2049z"/>
    <path class="fil8" d="M22195 5368l-528 1906c-25,89 -106,151 -198,151l-2217 0 591 -2134c17,-61 73,-104 137,-104l2078 0c94,0 162,90 137,181z"/>
    <path class="fil32" d="M22078 5452l-431 1554 -91 326 -2200 0 91 -326 451 -1625c16,-57 68,-97 128,-97l1925 0c87,0 151,83 127,168z"/>
    <polygon class="fil49" points="20783,5496 20106,5496 20121,5448 20798,5448 "/>
    <polygon class="fil10" points="21397,5496 21076,5496 21091,5448 21412,5448 "/>
    <polygon class="fil8" points="21860,5496 21539,5496 21554,5448 21875,5448 "/>
    <polygon class="fil9" points="21501,5496 21425,5496 21440,5448 21516,5448 "/>
    <polygon class="fil8" points="21039,5496 20814,5496 20829,5448 21054,5448 "/>
    <polygon class="fil30" points="20311,6308 20632,6308 20647,6260 20326,6260 "/>
    <polygon class="fil11" points="19848,6308 20169,6308 20184,6260 19863,6260 "/>
    <polygon class="fil9" points="20207,6308 20283,6308 20298,6260 20222,6260 "/>
    <polygon class="fil10" points="20295,5699 20041,5699 20056,5651 20310,5651 "/>
    <polygon class="fil9" points="20909,5699 20800,5699 20815,5651 20924,5651 "/>
    <polygon class="fil10" points="21795,5699 21263,5699 21278,5651 21810,5651 "/>
    <polygon class="fil9" points="21225,5699 20938,5699 20953,5651 21240,5651 "/>
    <polygon class="fil9" points="20763,5699 20327,5699 20342,5651 20778,5651 "/>
    <polygon class="fil13" points="19909,6917 19655,6917 19671,6870 19924,6870 "/>
    <polygon class="fil30" points="20231,5902 19977,5902 19992,5854 20246,5854 "/>
    <polygon class="fil30" points="20645,5902 20391,5902 20406,5854 20660,5854 "/>
    <polygon class="fil9" points="21660,5902 21224,5902 21239,5854 21676,5854 "/>
    <polygon class="fil9" points="19913,6105 20349,6105 20364,6057 19928,6057 "/>
    <polygon class="fil8" points="21675,7006 21582,7332 19328,7332 19420,7006 "/>
    <path class="fil8" d="M20461 7430l-2701 0c-63,0 -115,-52 -115,-115 0,-63 52,-115 115,-115l2701 0c63,0 115,52 115,115 0,63 -52,115 -115,115z"/>
    <polygon class="fil50" points="21479,5284 20629,5284 20674,5187 21523,5187 "/>
    <path class="fil51" d="M20692 7006l-849 0 0 0 40 -89 26 0 15 -47 -19 0 257 -562 7 0 15 -48 -1 0 71 -155 95 0 15 -48 -88 0 164 -358 323 0 15 -48 -316 0 71 -155 250 0 15 -48 -244 0 75 -164 0 0 850 0 0 0 -75 164 -313 0 -15 48 306 0 -71 155 -33 0 -15 48 26 0 -597 1307 0 0zm-366 -746l-15 48 321 0 15 -48 -321 0zm-104 0l-15 48 76 0 15 -48 -76 0zm184 -406l-15 48 254 0 15 -48 -254 0zm547 -203l-15 48 287 0 15 -48 -287 0zm-138 0l-15 48 109 0 15 -48 -109 0zm14 -203l-15 48 225 0 15 -48 -225 0z"/>
    <polygon class="fil52" points="20783,5496 20533,5496 20554,5448 20798,5448 "/>
    <polygon class="fil53" points="21382,5496 21076,5496 21091,5448 21404,5448 "/>
    <polygon class="fil50" points="21039,5496 20814,5496 20829,5448 21054,5448 "/>
    <polygon class="fil54" points="20632,6308 20311,6308 20326,6260 20647,6260 "/>
    <polygon class="fil55" points="20169,6308 20162,6308 20183,6260 20184,6260 "/>
    <polygon class="fil56" points="20283,6308 20207,6308 20222,6260 20298,6260 "/>
    <polygon class="fil56" points="20909,5699 20800,5699 20815,5651 20924,5651 "/>
    <polygon class="fil53" points="21289,5699 21263,5699 21278,5651 21311,5651 "/>
    <polygon class="fil56" points="21225,5699 20938,5699 20953,5651 21240,5651 "/>
    <polygon class="fil56" points="20763,5699 20440,5699 20462,5651 20778,5651 "/>
    <polygon class="fil57" points="19909,6917 19883,6917 19905,6870 19924,6870 "/>
    <polygon class="fil54" points="20645,5902 20391,5902 20406,5854 20660,5854 "/>
    <polygon class="fil56" points="20349,6105 20254,6105 20276,6057 20364,6057 "/>
    <polygon class="fil50" points="20611,7184 19762,7184 19843,7006 20692,7006 "/>
    <path class="fil51" d="M17856 6135l-1249 0 337 -738 476 0 0 -49 -454 0 73 -159 288 0 0 -49 -266 0 73 -160 286 0 0 -49 -263 0 73 -159 319 0 0 -49 -297 0 73 -160 95 0 0 -49 -73 0 73 -159 0 0 0 -1 95 -208 210 0 0 -49 -187 0 72 -159 251 0 0 -49 -228 0 142 -312 1250 0 -238 520 -324 0 0 49 302 0 -264 577 -340 0 0 49 318 0 -168 368 -372 0 0 49 350 0 -73 159 -431 0 0 49 408 0 -337 738zm-358 -787l0 49 227 0 0 -49 -227 0zm-105 -208l0 49 468 0 0 -49 -468 0zm392 -209l0 49 599 0 0 -49 -599 0zm-287 0l0 49 227 0 0 -49 -227 0zm128 -208l0 49 468 0 0 -49 -468 0zm159 -626l0 49 599 0 0 -49 -599 0zm882 -208l0 49 158 0 0 -49 -158 0zm-728 0l0 49 668 0 0 -49 -668 0z"/>
    <polygon class="fil54" points="18607,3938 17939,3938 17939,3889 18607,3889 "/>
    <polygon class="fil56" points="18825,3938 18667,3938 18667,3889 18825,3889 "/>
    <polygon class="fil53" points="17861,3938 17610,3938 17633,3889 17861,3889 "/>
    <polygon class="fil56" points="17327,5189 17039,5189 17061,5140 17327,5140 "/>
    <polygon class="fil54" points="18289,5189 17939,5189 17939,5140 18311,5140 "/>
    <polygon class="fil50" points="17861,5189 17393,5189 17393,5140 17861,5140 "/>
    <polygon class="fil56" points="18479,4772 18161,4772 18161,4723 18501,4723 "/>
    <polygon class="fil54" points="17549,4772 17230,4772 17252,4723 17549,4723 "/>
    <polygon class="fil50" points="18094,4772 17626,4772 17626,4723 18094,4723 "/>
    <polygon class="fil56" points="17725,4146 17515,4146 17538,4097 17725,4097 "/>
    <polygon class="fil54" points="18765,4146 18463,4146 18463,4097 18787,4097 "/>
    <polygon class="fil56" points="18384,4146 17785,4146 17785,4097 18384,4097 "/>
    <polygon class="fil56" points="17725,5397 17498,5397 17498,5348 17725,5348 "/>
    <polygon class="fil56" points="18193,5397 17785,5397 17785,5348 18216,5348 "/>
    <polygon class="fil56" points="17420,5397 16944,5397 16966,5348 17420,5348 "/>
    <polygon class="fil56" points="17725,4980 17498,4980 17498,4931 17725,4931 "/>
    <polygon class="fil56" points="18384,4980 17785,4980 17785,4931 18384,4931 "/>
    <polygon class="fil56" points="17420,4980 17134,4980 17157,4931 17420,4931 "/>
    <polygon class="fil56" points="17420,4355 17420,4355 17420,4354 "/>
    <polygon class="fil54" points="17420,4563 17325,4563 17347,4514 17420,4514 "/>
    <path class="fil30" d="M21485 7423l-1563 0c-64,0 -115,-52 -115,-115 0,-63 51,-115 115,-115l1563 0c63,0 115,52 115,115 0,63 -52,115 -115,115z"/>
    <polygon class="fil25" points="20923,7336 20700,7336 20700,7269 20923,7269 "/>
    <polygon class="fil25" points="20633,7336 20471,7336 20471,7269 20633,7269 "/>
    <path class="fil58" d="M19285 6493l0 935 -781 0 0 -935c0,-41 33,-75 74,-75l632 0c42,0 75,34 75,75z"/>
    <path class="fil10" d="M18513 7268c-10,-6 -250,-146 -271,-392 -8,-94 27,-152 59,-185 85,-88 228,-83 244,-82l-6 114c-29,-1 -114,4 -157,48 -21,23 -30,53 -26,95 16,187 212,302 214,303l-57 99z"/>
    <path class="fil10" d="M18920 7428l-416 0 0 -935c0,-41 33,-75 74,-75l26 0c1,49 14,422 119,691 91,234 172,303 197,319z"/>
    <path class="fil59" d="M18920 7428l-416 0 0 0 416 0c0,0 0,0 0,0z"/>
    <path class="fil60" d="M18406 7186c-71,-67 -152,-172 -164,-311 -1,-6 -1,-12 -1,-18 0,6 0,12 1,19 12,138 93,243 164,310zm98 -66c-59,-51 -138,-139 -148,-254 -2,-18 -1,-33 2,-47l0 0c-3,14 -4,29 -2,47 10,115 89,203 148,254l0 0z"/>
    <path class="fil61" d="M18358 6819l0 0c1,-7 3,-14 6,-20 -3,6 -5,13 -6,20z"/>
    <path class="fil60" d="M18241 6857c0,0 0,0 0,0 0,0 0,0 0,0z"/>
    <path class="fil61" d="M18385 6769c30,-30 82,-41 119,-45l0 0c-37,3 -89,15 -119,45zm44 -148c28,-7 54,-10 75,-12l0 0c-21,2 -47,5 -75,12z"/>
    <path class="fil62" d="M18504 7262c-18,-11 -56,-37 -98,-76 -71,-67 -152,-172 -164,-310 -1,-7 -1,-13 -1,-19 0,0 0,0 0,0 0,0 0,0 0,0 -2,-83 30,-135 60,-166 37,-38 84,-59 128,-70 28,-7 54,-10 75,-12l0 0 0 115c-37,4 -89,15 -119,45 -1,1 -2,1 -2,2 -8,8 -15,18 -19,28 -3,6 -5,13 -6,20 -3,14 -4,29 -2,47 10,115 89,203 148,254l0 0 0 142z"/>
    <path class="fil62" d="M18920 7428l-416 0 0 -166 0 -142 0 0 0 -396 0 0 0 -115 0 0 0 -116c0,-41 33,-75 74,-75l26 0c1,49 14,422 119,691 91,234 172,303 197,319z"/>
    <polygon class="fil63" points="10241,6912 10152,6897 10368,5675 10457,5691 "/>
    <polygon class="fil63" points="10424,6032 10287,6008 10352,5640 10489,5665 "/>
    <polygon class="fil64" points="10093,7068 10004,7061 10107,5825 10162,5746 10197,5832 "/>
    <polygon class="fil65" points="9969,7131 9881,7148 9644,5931 9674,5840 9732,5914 "/>
    <polygon class="fil66" points="10167,7414 9783,7414 9657,6398 10293,6398 "/>
    <polygon class="fil67" points="10312,7414 9928,7414 9871,6398 10438,6398 "/>
    <path class="fil45" d="M22170 8947l0 560 1955 0c121,0 225,-78 263,-186 11,-29 17,-61 17,-94 0,-77 -32,-147 -82,-198 -51,-51 -121,-82 -198,-82l-1955 0z"/>
    <path class="fil68" d="M24125 9507l-1517 0 0 -186 1780 0c-38,108 -142,186 -263,186z"/>
    <path class="fil44" d="M21753 8947l0 560 1281 0c154,0 280,-126 280,-280 0,-77 -32,-147 -82,-198 -51,-51 -121,-82 -198,-82l-1281 0z"/>
    <path class="fil7" d="M21753 9043l0 359 1205 0c100,0 180,-81 180,-180 0,-49 -20,-94 -53,-127 -32,-32 -77,-52 -127,-52l-1205 0z"/>
    <path class="fil69" d="M22133 7834l0 560 1954 0c154,0 280,-125 280,-280 0,-77 -31,-147 -82,-198 -51,-50 -121,-82 -198,-82l-1954 0z"/>
    <path class="fil70" d="M22576 8021l0 -185 1516 0c122,0 225,77 264,185l-1780 0z"/>
    <path class="fil71" d="M21753 7834l0 560 1281 0c154,0 280,-125 280,-280 0,-77 -32,-147 -82,-198 -51,-50 -121,-82 -198,-82l-1281 0z"/>
    <path class="fil7" d="M21753 7930l0 359 1205 0c100,0 180,-80 180,-179 0,-50 -20,-94 -53,-127 -32,-32 -77,-53 -127,-53l-1205 0z"/>
    <path class="fil12" d="M22032 8397l0 560 1954 0c155,0 280,-125 280,-280 0,-47 -12,-92 -33,-131 -13,-25 -30,-47 -49,-67 -51,-50 -121,-82 -198,-82l-1954 0z"/>
    <path class="fil72" d="M22083 8397l0 149 2150 0c-13,-25 -30,-47 -49,-67 -51,-50 -121,-82 -198,-82l-1903 0z"/>
    <path class="fil72" d="M22083 8958l0 -149 2150 0c-13,25 -30,47 -49,67 -51,50 -121,82 -198,82l-1903 0z"/>
    <path class="fil73" d="M21520 8398l0 559 1173 0c154,0 280,-125 280,-280 0,-77 -31,-147 -82,-198 -51,-50 -121,-82 -198,-82l-1173 1z"/>
    <path class="fil7" d="M21520 8493l0 359 1097 0c100,0 180,-80 180,-179 0,-50 -20,-94 -53,-127 -32,-32 -77,-53 -127,-53l-1097 0z"/>
    <path class="fil25" d="M22333 5111l0 0c-93,-100 -85,-254 18,-344l12 -10c103,-90 263,-82 357,17l0 0c93,100 85,254 -18,344l-12 10c-104,90 -263,83 -357,-17z"/>
    <path class="fil40" d="M22532 5595l-246 214 -699 -745 246 -214c171,-148 415,-168 605,-65 48,26 92,59 131,101 96,103 140,233 134,362 -7,128 -65,254 -171,347z"/>
    <path class="fil11" d="M22309 5358l-245 214 -477 -508 246 -214c171,-148 415,-168 605,-65 32,72 47,149 43,226 -7,128 -65,254 -172,347z"/>
    <path class="fil8" d="M22298 5806c-74,66 -293,-44 -489,-248 -197,-203 -296,-421 -221,-488 58,-52 207,6 365,133 41,34 83,72 124,115 48,49 90,100 125,149 110,152 153,289 96,339z"/>
    <path class="fil7" d="M22202 5467c-57,62 -153,80 -232,38 -89,-49 -121,-159 -70,-245 13,-23 32,-42 53,-57 41,34 83,72 124,115 48,49 90,100 125,149z"/>
    <polyline class="fil3 str2" points="23575,7519 24213,5461 22922,4601 22651,4832 "/>
    <path class="fil25" d="M23064 4614c0,84 -72,153 -159,153 -88,0 -159,-69 -159,-153 0,-85 71,-153 159,-153 87,0 159,68 159,153z"/>
    <path class="fil13" d="M22984 4614c0,42 -35,76 -79,76 -44,0 -80,-34 -80,-76 0,-43 36,-77 80,-77 44,0 79,34 79,77z"/>
    <path class="fil13" d="M24217 7841l-1642 0c0,-180 146,-326 326,-326l990 0c180,0 326,146 326,326z"/>
    <polygon class="fil25" points="23210,7523 22913,7523 22913,7433 23210,7433 "/>
    <path class="fil25" d="M24422 5482c0,119 -99,215 -222,215 -123,0 -222,-96 -222,-215 0,-118 99,-214 222,-214 123,0 222,96 222,214z"/>
    <path class="fil13" d="M24311 5482c0,60 -49,108 -111,108 -61,0 -111,-48 -111,-108 0,-59 50,-107 111,-107 62,0 111,48 111,107z"/>
    <path class="fil74" d="M25626 7963c-240,328 -724,382 -724,382 0,0 -92,-477 148,-805 241,-328 725,-383 725,-383 0,0 92,478 -149,806z"/>
    <path class="fil75" d="M24615 7767c221,217 209,588 209,588 0,0 -371,17 -591,-201 -221,-217 -209,-588 -209,-588 0,0 370,-17 591,201z"/>
    <path class="fil76" d="M25162 7602c45,404 -274,772 -274,772 0,0 -391,-289 -436,-693 -45,-405 274,-772 274,-772 0,0 391,288 436,693z"/>
    <polygon class="fil77" points="25132,9491 24294,9491 24019,8268 25407,8268 "/>
    <polygon class="fil42" points="25448,9491 24610,9491 24486,8268 25723,8268 "/>
   </g>
   <path class="fil0" d="M1278 2237l2235 0 0 -249 -2235 0 0 249zm0 -621l2235 0 0 -249 -2235 0 0 249zm0 -869l0 248 2235 0 0 -248 -2235 0z"/>
  </g>
 </g>
</svg>
