<?xml version="1.0" encoding="UTF-8"?>
<!DOCTYPE svg PUBLIC "-//W3C//DTD SVG 1.1//EN" "http://www.w3.org/Graphics/SVG/1.1/DTD/svg11.dtd">
<!-- Creator: CorelDRAW X7 -->
<svg xmlns="http://www.w3.org/2000/svg" xml:space="preserve" width="502.916mm" height="510.826mm" version="1.1" style="shape-rendering:geometricPrecision; text-rendering:geometricPrecision; image-rendering:optimizeQuality; fill-rule:evenodd; clip-rule:evenodd"
viewBox="0 0 48359 49120"
 xmlns:xlink="http://www.w3.org/1999/xlink">
 <defs>
  <style type="text/css">
   <![CDATA[
    .fil3 {fill:none}
    .fil5 {fill:#EBECEC}
    .fil4 {fill:#C5C6C6}
    .fil0 {fill:#FBDFDC}
    .fil1 {fill:#F8C4BF}
    .fil2 {fill:#E8443B}
   ]]>
  </style>
 </defs>
 <g id="Layer_x0020_1">
  <metadata id="CorelCorpID_0Corel-Layer"/>
  <polygon class="fil0" points="24180,0 27283,12899 37386,408 32505,14863 46400,8357 35084,19777 48359,21321 34200,26082 42641,35186 30135,31775 31062,45549 24180,35050 17297,49120 18224,34866 5718,44765 14159,31281 0,33867 13276,25435 1959,19886 15854,19182 10973,7261 21076,14509 "/>
  <polygon class="fil1" points="26773,6456 29351,17168 37742,6795 33688,18799 45228,13396 35829,22881 46855,24163 35096,28117 42106,35678 31720,32846 32489,44285 26773,35565 21057,47250 21827,35412 11441,43634 18451,32435 6692,34583 17717,27580 8319,22971 19859,22387 15805,12486 24196,18506 "/>
  <polygon class="fil2" points="29925,10918 32067,19820 39040,11200 35671,21175 45261,16685 37451,24567 46613,25632 36841,28918 42666,35201 34036,32847 34675,42353 29925,35107 25176,44817 25815,34980 17184,41812 23010,32506 13238,34291 22400,28471 14590,24642 24180,24156 20811,15929 27783,20931 "/>
  <path class="fil3" d="M27665 26156c82,-59 223,-76 294,-84 71,-9 71,-9 288,-385 218,-376 653,-1128 916,-1586 263,-458 354,-622 419,-803 65,-181 104,-378 118,-653 14,-274 3,-624 6,-921 3,-297 20,-540 31,-727 11,-186 17,-316 65,-412 48,-97 139,-159 263,-207 124,-48 283,-82 427,-76 144,6 274,51 376,113 102,62 175,141 257,254 82,113 172,260 232,416 59,155 87,319 99,755 11,435 5,1142 8,1518 3,376 14,421 424,381 410,-39 1219,-164 1685,-206 467,-42 591,-3 710,68 118,71 231,172 311,291 79,119 124,254 147,382 22,127 22,246 5,415 -17,170 -51,390 -68,501 -17,110 -17,110 -17,110 0,0 0,0 40,76 40,76 119,229 158,402 40,172 40,364 17,556 -22,193 -68,385 -130,535 -62,150 -141,257 -206,342 -65,85 -116,147 -141,178 -26,31 -26,31 -26,31 0,0 0,0 31,68 31,68 93,203 105,362 11,158 -29,339 -79,497 -51,158 -113,294 -190,402 -76,107 -167,186 -274,274 -107,87 -232,183 -288,243 -57,59 -46,82 -31,169 14,88 31,241 11,393 -20,153 -76,306 -150,444 -73,139 -164,263 -300,385 -135,121 -316,240 -548,330 -232,91 -514,153 -1165,258 -650,104 -1667,251 -2207,325 -540,73 -603,73 -800,-23 -198,-96 -532,-288 -724,-404 -192,-116 -243,-156 -257,-930 -14,-775 8,-2284 31,-3090 22,-806 45,-907 127,-967z"/>
  <path class="fil4" d="M27665 26156c82,-59 223,-76 294,-84 71,-9 71,-9 288,-385 218,-376 653,-1128 916,-1586 263,-458 354,-622 419,-803 65,-181 104,-378 118,-653 14,-274 3,-624 6,-921 3,-297 20,-540 31,-727 11,-186 17,-316 65,-412 48,-97 139,-159 263,-207 124,-48 283,-82 624,-64 341,18 866,87 1196,287 330,200 465,531 542,755 76,225 93,344 103,710 10,366 13,979 16,1286 2,307 5,308 233,273 229,-34 682,-104 971,-119 290,-15 414,24 718,80 305,56 790,128 1048,348 258,220 289,587 289,877 0,290 -31,502 -48,610 -17,109 -20,115 42,262 62,147 190,435 177,755 -13,319 -165,670 -276,872 -110,202 -178,256 -212,289 -34,34 -34,48 2,160 35,112 106,321 86,544 -20,224 -130,461 -284,663 -154,202 -352,369 -454,454 -102,85 -107,88 -110,174 -3,86 -3,256 -28,456 -26,201 -77,433 -231,643 -154,211 -411,400 -1155,590 -743,189 -1973,379 -2644,479 -671,100 -785,112 -1033,77 -248,-35 -631,-115 -989,-252 -358,-136 -692,-328 -884,-444 -192,-116 -243,-156 -257,-930 -14,-775 8,-2284 31,-3090 22,-806 45,-907 127,-967z"/>
  <path class="fil5" d="M28734 26377c81,-60 223,-77 294,-85 70,-8 70,-8 288,-384 218,-376 653,-1128 916,-1586 263,-458 353,-622 418,-803 65,-181 105,-379 119,-653 14,-274 3,-625 6,-922 2,-296 19,-540 31,-726 11,-187 17,-317 65,-413 48,-96 138,-158 263,-206 124,-48 282,-82 426,-77 145,6 275,51 376,113 102,63 176,142 258,255 82,113 172,260 231,415 60,156 88,320 99,755 12,436 6,1142 9,1518 3,376 14,421 424,382 410,-40 1218,-164 1685,-206 466,-43 590,-3 709,67 119,71 232,173 311,292 79,118 124,254 147,381 23,127 23,246 6,416 -17,169 -51,390 -68,500 -17,110 -17,110 -17,110 0,0 0,0 40,77 39,76 118,229 158,401 39,172 39,365 17,557 -23,192 -68,384 -130,534 -62,150 -142,257 -207,342 -65,85 -115,147 -141,178 -25,31 -25,31 -25,31 0,0 0,0 31,68 31,68 93,204 104,362 12,158 -28,339 -79,498 -51,158 -113,294 -189,401 -77,107 -167,187 -274,274 -108,88 -232,184 -289,243 -56,60 -45,82 -31,170 14,88 31,240 11,393 -19,153 -76,305 -149,444 -74,138 -164,263 -300,384 -136,122 -317,240 -548,331 -232,90 -515,153 -1165,257 -650,105 -1668,252 -2208,325 -540,74 -602,74 -800,-22 -198,-97 -531,-289 -724,-405 -192,-116 -243,-155 -257,-930 -14,-774 9,-2284 31,-3089 23,-806 46,-908 128,-967z"/>
  <rect class="fil4" transform="matrix(0.906862 -0.107029 -0 0.792391 24314.3 26490.9)" width="3264" height="6448" rx="255" ry="255"/>
  <rect class="fil5" transform="matrix(0.906862 -0.107029 -0 0.792391 25293.3 26692.5)" width="3264" height="6448" rx="255" ry="255"/>
 </g>
</svg>
