<?xml version="1.0" encoding="UTF-8"?>
<!DOCTYPE svg PUBLIC "-//W3C//DTD SVG 1.1//EN" "http://www.w3.org/Graphics/SVG/1.1/DTD/svg11.dtd">
<!-- Creator: CorelDRAW X7 -->
<svg xmlns="http://www.w3.org/2000/svg" xml:space="preserve" width="347.082mm" height="352.541mm" version="1.1" style="shape-rendering:geometricPrecision; text-rendering:geometricPrecision; image-rendering:optimizeQuality; fill-rule:evenodd; clip-rule:evenodd"
viewBox="0 0 48639 49404"
 xmlns:xlink="http://www.w3.org/1999/xlink">
 <defs>
  <style type="text/css">
   <![CDATA[
    .fil1 {fill:none}
    .fil3 {fill:#EBECEC}
    .fil2 {fill:#C5C6C6}
    .fil0 {fill:#E31E24}
   ]]>
  </style>
 </defs>
 <g id="Layer_x0020_1">
  <metadata id="CorelCorpID_0Corel-Layer"/>
  <polygon class="fil0" points="24320,0 27441,12974 37603,411 32693,14949 46669,8405 35287,19892 48639,21445 34398,26233 42888,35390 30310,31959 31242,45812 24320,35253 17397,49404 18329,35068 5751,45024 14241,31463 0,34063 13352,25582 1970,20001 15946,19294 11036,7303 21198,14593 "/>
  <path class="fil1" d="M21025 22208c120,-86 326,-111 429,-123 103,-13 103,-13 420,-561 317,-548 952,-1643 1335,-2311 383,-667 515,-906 610,-1170 94,-263 152,-552 173,-951 20,-400 4,-911 8,-1344 4,-432 29,-786 45,-1058 17,-272 25,-462 95,-602 70,-140 202,-231 383,-301 181,-70 412,-119 622,-111 210,8 400,74 548,165 148,91 256,206 375,371 120,165 251,379 338,605 86,227 128,466 144,1100 17,635 8,1665 12,2213 5,548 21,614 618,556 598,-58 1776,-239 2456,-301 680,-62 861,-4 1034,99 173,103 338,251 453,424 115,173 181,371 214,556 33,186 33,359 8,606 -24,247 -74,569 -98,729 -25,161 -25,161 -25,161 0,0 0,0 58,111 57,111 173,334 230,585 58,252 58,532 25,812 -33,280 -99,560 -190,778 -90,219 -206,375 -300,499 -95,124 -169,214 -206,259 -37,46 -37,46 -37,46 0,0 0,0 45,99 45,99 136,296 152,527 17,231 -41,494 -115,725 -74,231 -165,429 -276,585 -111,157 -243,272 -400,400 -156,127 -337,268 -420,354 -82,87 -66,119 -45,247 21,128 45,350 16,573 -28,222 -111,445 -218,647 -107,202 -239,383 -437,560 -197,177 -461,350 -799,482 -338,132 -750,222 -1697,375 -948,152 -2431,367 -3218,474 -787,107 -877,107 -1166,-33 -288,-140 -774,-421 -1054,-589 -281,-169 -355,-227 -375,-1356 -21,-1129 12,-3329 45,-4503 33,-1174 66,-1322 185,-1409z"/>
  <path class="fil2" d="M21025 22208c120,-86 326,-111 429,-123 103,-13 103,-13 420,-561 317,-548 952,-1643 1335,-2311 383,-667 515,-906 610,-1170 94,-263 152,-552 173,-951 20,-400 4,-911 8,-1344 4,-432 29,-786 45,-1058 17,-272 25,-462 95,-602 70,-140 202,-231 383,-301 181,-70 412,-119 910,-93 497,25 1261,126 1742,418 481,291 679,773 790,1101 111,327 136,500 151,1034 14,533 18,1427 22,1875 4,447 8,448 341,398 333,-51 994,-153 1415,-175 422,-22 603,36 1047,117 444,82 1150,187 1526,507 376,320 421,856 421,1278 0,423 -45,732 -70,890 -24,159 -29,167 62,381 91,214 276,635 258,1100 -19,466 -241,977 -402,1271 -161,295 -260,373 -309,422 -49,50 -49,70 2,233 51,163 154,468 126,793 -29,326 -190,672 -414,966 -225,295 -513,538 -662,662 -148,123 -156,127 -160,253 -4,126 -4,373 -41,665 -38,293 -112,631 -336,938 -225,306 -600,582 -1683,858 -1084,277 -2876,553 -3854,699 -979,146 -1143,163 -1505,112 -361,-50 -920,-168 -1442,-367 -522,-198 -1008,-479 -1288,-647 -281,-169 -355,-227 -375,-1356 -21,-1129 12,-3329 45,-4503 33,-1174 66,-1322 185,-1409z"/>
  <path class="fil3" d="M22583 22530c119,-87 325,-112 428,-124 103,-12 103,-12 420,-560 318,-548 952,-1644 1335,-2311 383,-668 515,-907 610,-1170 95,-264 152,-553 173,-952 21,-400 4,-911 8,-1343 4,-433 29,-787 46,-1059 16,-272 24,-461 94,-601 70,-141 202,-231 383,-301 182,-70 412,-120 622,-111 211,8 400,74 548,164 149,91 256,206 375,371 120,165 252,379 338,606 87,226 128,465 144,1100 17,634 9,1664 13,2212 4,548 20,614 618,556 597,-57 1775,-239 2455,-301 680,-61 861,-4 1034,99 173,103 338,252 453,425 116,173 182,370 215,556 32,185 32,358 8,605 -25,248 -74,569 -99,730 -25,160 -25,160 -25,160 0,0 0,0 58,112 58,111 173,333 231,585 57,251 57,531 24,811 -33,280 -99,560 -189,779 -91,218 -206,375 -301,498 -95,124 -169,215 -206,260 -37,45 -37,45 -37,45 0,0 0,0 45,99 46,99 136,297 153,527 16,231 -41,495 -116,725 -74,231 -164,429 -276,585 -111,157 -243,272 -399,400 -157,128 -338,268 -421,354 -82,87 -65,120 -45,248 21,127 45,350 17,572 -29,223 -112,445 -219,647 -107,202 -239,383 -436,560 -198,177 -462,350 -800,482 -337,132 -749,223 -1697,375 -948,153 -2431,367 -3218,474 -786,107 -877,107 -1165,-33 -289,-140 -775,-420 -1055,-589 -280,-169 -354,-227 -375,-1356 -21,-1128 12,-3328 45,-4502 33,-1175 66,-1323 186,-1409z"/>
  <rect class="fil2" transform="matrix(0.906862 -0.107029 -0 0.792391 16142.3 22695.9)" width="4757" height="9397" rx="372" ry="372"/>
  <rect class="fil3" transform="matrix(0.906862 -0.107029 -0 0.792391 17569.1 22989.7)" width="4757" height="9397" rx="372" ry="372"/>
 </g>
</svg>
