<?xml version="1.0" encoding="UTF-8"?>
<!DOCTYPE svg PUBLIC "-//W3C//DTD SVG 1.1//EN" "http://www.w3.org/Graphics/SVG/1.1/DTD/svg11.dtd">
<!-- Creator: CorelDRAW X7 -->
<svg xmlns="http://www.w3.org/2000/svg" xml:space="preserve" width="183.34mm" height="149.569mm" version="1.1" style="shape-rendering:geometricPrecision; text-rendering:geometricPrecision; image-rendering:optimizeQuality; fill-rule:evenodd; clip-rule:evenodd"
viewBox="0 0 18020 14700"
 xmlns:xlink="http://www.w3.org/1999/xlink">
 <defs>
  <style type="text/css">
   <![CDATA[
    .str3 {stroke:white;stroke-width:15.4604}
    .str2 {stroke:#FE964A;stroke-width:25.9672}
    .str1 {stroke:#80B8E8;stroke-width:31.9823}
    .str0 {stroke:#80B8E8;stroke-width:34.6753}
    .str4 {stroke:#FF362E;stroke-width:7.48939}
    .fil1 {fill:none;fill-rule:nonzero}
    .fil30 {fill:#004297;fill-rule:nonzero}
    .fil38 {fill:#008797;fill-rule:nonzero}
    .fil6 {fill:#0669ED;fill-rule:nonzero}
    .fil37 {fill:#13E9FF;fill-rule:nonzero}
    .fil12 {fill:#152795;fill-rule:nonzero}
    .fil68 {fill:#170329;fill-rule:nonzero}
    .fil32 {fill:#2072B0;fill-rule:nonzero}
    .fil26 {fill:#212121;fill-rule:nonzero}
    .fil24 {fill:#2184FF;fill-rule:nonzero}
    .fil70 {fill:#2F1700;fill-rule:nonzero}
    .fil16 {fill:#3293A0;fill-rule:nonzero}
    .fil23 {fill:#3B45A2;fill-rule:nonzero}
    .fil13 {fill:#40BE5B;fill-rule:nonzero}
    .fil54 {fill:#424242;fill-rule:nonzero}
    .fil43 {fill:#42D4FF;fill-rule:nonzero}
    .fil14 {fill:#4DBBC9;fill-rule:nonzero}
    .fil29 {fill:#4E2869;fill-rule:nonzero}
    .fil39 {fill:#53EDFF;fill-rule:nonzero}
    .fil7 {fill:#599DFF;fill-rule:nonzero}
    .fil2 {fill:#6391B9;fill-rule:nonzero}
    .fil40 {fill:#6D2BA1;fill-rule:nonzero}
    .fil75 {fill:#797979;fill-rule:nonzero}
    .fil73 {fill:#79A92D;fill-rule:nonzero}
    .fil27 {fill:#7A43A1;fill-rule:nonzero}
    .fil4 {fill:#80B8E8;fill-rule:nonzero}
    .fil15 {fill:#85D9E6;fill-rule:nonzero}
    .fil44 {fill:#8CE2FF;fill-rule:nonzero}
    .fil41 {fill:#8F36D3;fill-rule:nonzero}
    .fil74 {fill:#939293;fill-rule:nonzero}
    .fil60 {fill:#987200;fill-rule:nonzero}
    .fil57 {fill:#991103;fill-rule:nonzero}
    .fil72 {fill:#9CCD4F;fill-rule:nonzero}
    .fil28 {fill:#A35BD9;fill-rule:nonzero}
    .fil11 {fill:#A81C70;fill-rule:nonzero}
    .fil36 {fill:#AAAAAA;fill-rule:nonzero}
    .fil42 {fill:#AC79D3;fill-rule:nonzero}
    .fil48 {fill:#B6501F;fill-rule:nonzero}
    .fil55 {fill:#BDBDBD;fill-rule:nonzero}
    .fil5 {fill:#BFC2CB;fill-rule:nonzero}
    .fil19 {fill:#C69A17;fill-rule:nonzero}
    .fil49 {fill:#D2AC80;fill-rule:nonzero}
    .fil35 {fill:#D6D6D6;fill-rule:nonzero}
    .fil22 {fill:#DA5F55;fill-rule:nonzero}
    .fil69 {fill:#E25C13;fill-rule:nonzero}
    .fil34 {fill:#EBEBEB;fill-rule:nonzero}
    .fil53 {fill:#F1F1F1;fill-rule:nonzero}
    .fil67 {fill:#F2B381;fill-rule:nonzero}
    .fil8 {fill:#F36003;fill-rule:nonzero}
    .fil21 {fill:#F3938E;fill-rule:nonzero}
    .fil45 {fill:#F3D788;fill-rule:nonzero}
    .fil71 {fill:#F43B8B;fill-rule:nonzero}
    .fil9 {fill:#F4C125;fill-rule:nonzero}
    .fil47 {fill:#F5AB8D;fill-rule:nonzero}
    .fil51 {fill:whitesmoke;fill-rule:nonzero}
    .fil46 {fill:#F66F2D;fill-rule:nonzero}
    .fil10 {fill:#F82C8A;fill-rule:nonzero}
    .fil33 {fill:#F83A3C;fill-rule:nonzero}
    .fil20 {fill:#FB6F64;fill-rule:nonzero}
    .fil17 {fill:#FCCB3C;fill-rule:nonzero}
    .fil66 {fill:#FDDCC3;fill-rule:nonzero}
    .fil50 {fill:#FEBC4A;fill-rule:nonzero}
    .fil31 {fill:#FED415;fill-rule:nonzero}
    .fil58 {fill:#FF362E;fill-rule:nonzero}
    .fil64 {fill:#FF5859;fill-rule:nonzero}
    .fil59 {fill:#FF6262;fill-rule:nonzero}
    .fil52 {fill:#FF93BA;fill-rule:nonzero}
    .fil61 {fill:#FFC922;fill-rule:nonzero}
    .fil62 {fill:#FFD45A;fill-rule:nonzero}
    .fil18 {fill:#FFE08E;fill-rule:nonzero}
    .fil3 {fill:white;fill-rule:nonzero}
    .fil65 {fill:white;fill-rule:nonzero;fill-opacity:0.101961}
    .fil56 {fill:#E8E8E8;fill-rule:nonzero;fill-opacity:0.231373}
    .fil0 {fill:#2F1542;fill-rule:nonzero;fill-opacity:0.250980}
    .fil63 {fill:#C8D6DD;fill-rule:nonzero;fill-opacity:0.501961}
    .fil25 {fill:url(#id0);fill-rule:nonzero}
   ]]>
  </style>
  <linearGradient id="id0" gradientUnits="userSpaceOnUse" x1="8312.44" y1="3404.7" x2="4189.85" y2="5522.73">
   <stop offset="0" style="stop-opacity:1; stop-color:#1DB1ED"/>
   <stop offset="0.109804" style="stop-opacity:1; stop-color:#1DB1ED"/>
   <stop offset="0.470588" style="stop-opacity:1; stop-color:#1AA0D8"/>
   <stop offset="0.929412" style="stop-opacity:1; stop-color:#178FC1"/>
   <stop offset="1" style="stop-opacity:1; stop-color:#178FC1"/>
  </linearGradient>
 </defs>
 <g id="Layer_x0020_2">
  <metadata id="CorelCorpID_0Corel-Layer"/>
  <g id="_2063664277072">
   <polygon class="fil0" points="3491,3252 3986,2984 4458,3285 3964,3553 "/>
   <polygon class="fil0" points="4475,2840 4969,2572 5442,2873 4948,3141 "/>
   <polygon class="fil0" points="5461,2363 5956,2095 6429,2396 5934,2664 "/>
   <path class="fil0" d="M3206 9080l-88 -148c-1,-7 -4,-13 -9,-16l-201 -332c-1,-3 -3,-7 -6,-10l-2 -3 0 1c-4,-5 -7,-9 -12,-12l0 0 0 0 -2297 -1472 0 0 -129 -82 0 0c0,0 -267,-196 -418,48 -152,244 137,404 137,404l128 82 2298 1473c5,2 10,4 15,6l0 0c7,2 14,3 22,2l375 40c5,3 11,4 17,2l170 17z"/>
   <polygon class="fil0" points="945,6588 7864,2836 17322,8847 10403,12599 "/>
   <line class="fil1 str0" x1="12419" y1="10477" x2="14288" y2= "11649" />
   <line class="fil1 str0" x1="14891" y1="9122" x2="16759" y2= "10294" />
   <g>
    <polygon class="fil2" points="10421,12102 17341,8351 17362,7782 10443,11534 "/>
   </g>
   <g>
    <polygon class="fil3" points="985,5523 7905,1771 17362,7782 10443,11534 "/>
   </g>
   <g>
    <path class="fil4" d="M10443 11534l-22 569 -4778 -3038 -266 -169c0,0 0,0 0,0l-204 -129 -150 -96 -4059 -2580 21 -568 4166 2648 701 445 4591 2918z"/>
   </g>
   <polygon class="fil1 str1" points="11172,5012 7712,6888 10075,8389 13536,6515 "/>
   <g>
    <path class="fil5" d="M12108 6712c-13,350 -534,617 -1163,595 -629,-21 -1128,-322 -1115,-671 13,-350 534,-617 1163,-595 629,21 1128,322 1115,671z"/>
   </g>
   <path class="fil0" d="M15418 11835c-10,271 -408,476 -888,460 -481,-16 -862,-248 -852,-518 10,-270 408,-476 888,-460 481,16 862,248 852,518z"/>
   <g>
    <path class="fil6" d="M15426 11445l6 -147 -74 -3c-132,-172 -429,-299 -779,-311 -351,-12 -656,95 -800,258l-81 -3 -9 238 3 0c22,256 390,470 850,485 480,16 878,-190 888,-460 1,-19 -1,-38 -4,-57z"/>
   </g>
   <path class="fil7" d="M15439 11275c-10,270 -408,476 -888,460 -481,-16 -862,-248 -852,-518 10,-270 408,-476 888,-460 481,16 862,248 852,518z"/>
   <path class="fil0" d="M17890 10480c-11,270 -408,476 -889,460 -480,-16 -861,-248 -851,-518 10,-271 408,-476 888,-460 481,16 862,248 852,518z"/>
   <g>
    <path class="fil8" d="M17898 10090l5 -148 -73 -2c-132,-173 -429,-300 -779,-311 -351,-12 -657,94 -801,258l-80 -3 -9 238 3 0c22,256 390,469 850,485 480,16 878,-190 888,-460 1,-19 -1,-38 -4,-57z"/>
   </g>
   <g>
    <path class="fil9" d="M17911 9920c-11,270 -408,476 -889,460 -480,-16 -861,-249 -851,-519 10,-270 408,-476 888,-459 481,16 862,248 852,518z"/>
   </g>
   <g>
    <polygon class="fil10" points="7410,2039 16867,8051 17362,7782 7905,1771 "/>
   </g>
   <g>
    <polygon class="fil11" points="16867,8051 16848,8618 17341,8351 17362,7782 "/>
   </g>
   <path class="fil12" d="M15772 8266c0,-6 1,-11 1,-16l8 -218 -382 -98 -1674 -1064c-43,-27 -97,-29 -142,-5l-753 409 -203 -52 -11 284 5 1c7,36 28,70 63,92l1485 942 -11 302c-2,42 36,75 77,66l386 -82 46 30c43,27 97,29 142,4l888 -480c43,-23 67,-64 74,-107l1 0 0 -8z"/>
   <path class="fil3" d="M8059 2061c-2,53 -77,95 -169,91 -91,-3 -164,-49 -162,-102 2,-54 78,-95 169,-92 92,3 165,49 162,103z"/>
   <g>
    <path class="fil9" d="M8384 2267c-3,53 -78,95 -170,91 -91,-3 -164,-49 -162,-103 2,-53 78,-94 170,-91 91,3 164,49 162,103z"/>
   </g>
   <path class="fil13" d="M8740 2474c-2,53 -78,95 -169,91 -92,-3 -164,-49 -162,-103 2,-53 77,-94 169,-91 91,3 164,49 162,103z"/>
   <g>
    <polygon class="fil14" points="6895,2875 7389,2607 8335,3208 7840,3476 "/>
   </g>
   <g>
    <polygon class="fil15" points="6895,2875 6889,3017 7836,3606 7840,3476 "/>
   </g>
   <g>
    <polygon class="fil16" points="7836,3606 8330,3330 8335,3208 7840,3476 "/>
   </g>
   <g>
    <polygon class="fil17" points="8077,3627 8571,3359 9517,3960 9023,4228 "/>
   </g>
   <g>
    <polygon class="fil18" points="8077,3627 8072,3769 9018,4357 9023,4228 "/>
   </g>
   <g>
    <polygon class="fil19" points="9018,4357 9512,4081 9517,3960 9023,4228 "/>
   </g>
   <g>
    <polygon class="fil20" points="9259,4371 9754,4103 10699,4704 10205,4972 "/>
   </g>
   <g>
    <polygon class="fil21" points="9259,4371 9254,4513 10200,5102 10205,4972 "/>
   </g>
   <g>
    <polygon class="fil22" points="10200,5102 10695,4826 10699,4704 10205,4972 "/>
   </g>
   <path class="fil23" d="M15715 7920l-1982 -1259c-43,-27 -97,-29 -142,-5l-890 482c-97,53 -102,193 -9,252l1485 942 -11 301c-2,43 36,75 77,67l385 -82 46 29c44,28 98,30 143,5l888 -480c97,-53 102,-193 10,-252z"/>
   <polygon class="fil24" points="13155,7267 13728,7631 14176,7364 13624,7013 "/>
   <polygon class="fil4" points="14009,7587 14761,8065 14856,8010 14095,7534 "/>
   <polygon class="fil4" points="13857,7691 14609,8169 14704,8114 13942,7639 "/>
   <polygon class="fil4" points="14171,7483 14924,7961 15018,7906 14257,7431 "/>
   <g>
    <polygon class="fil5" points="6251,3258 9088,5055 6617,6402 3780,4598 "/>
   </g>
   <polygon class="fil25" points="6269,2782 9106,4579 6635,5926 3798,4122 "/>
   <path class="fil26" d="M7080 4283c-9,237 -296,419 -641,408 -345,-12 -617,-213 -608,-451 9,-237 296,-419 640,-408 345,12 618,213 609,451z"/>
   <polygon class="fil3" points="6099,4301 6598,4036 6694,4362 "/>
   <polygon class="fil27" points="12033,7888 10550,8691 12441,9893 13924,9089 "/>
   <polygon class="fil28" points="10550,8691 10545,8812 12437,10006 12441,9893 "/>
   <polygon class="fil29" points="12437,10006 13919,9209 13924,9089 12441,9893 "/>
   <polygon class="fil7" points="3798,4122 3792,4264 6629,6076 6635,5926 "/>
   <polygon class="fil30" points="6629,6076 9101,4718 9106,4579 6635,5926 "/>
   <g>
    <polygon class="fil31" points="7457,7025 7685,7171 7447,7300 7218,7155 "/>
   </g>
   <g>
    <polygon class="fil4" points="7509,7340 7749,7211 8600,7752 8361,7881 "/>
   </g>
   <g>
    <polygon class="fil32" points="9073,6890 9302,7035 9063,7165 8834,7020 "/>
   </g>
   <g>
    <polygon class="fil4" points="9125,7205 9365,7076 10216,7617 9977,7746 "/>
   </g>
   <g>
    <polygon class="fil33" points="8687,7803 8915,7948 8676,8078 8448,7932 "/>
   </g>
   <g>
    <polygon class="fil4" points="8738,8117 8978,7988 9829,8529 9590,8659 "/>
   </g>
   <polygon class="fil30" points="1708,5412 1736,4673 2351,5063 2323,5802 "/>
   <polygon class="fil24" points="2351,5063 2993,4715 2965,5454 2323,5802 "/>
   <polygon class="fil7" points="1736,4673 2378,4324 2993,4715 2351,5063 "/>
   <g>
    <polygon class="fil34" points="2217,4755 2240,4155 2761,3872 2739,4472 "/>
    <polygon class="fil35" points="2168,4110 2240,4155 2761,3872 2689,3827 "/>
    <polygon class="fil36" points="2168,4110 2145,4710 2217,4755 2240,4155 "/>
   </g>
   <polygon class="fil37" points="2938,6193 2965,5454 3580,5845 3552,6584 "/>
   <polygon class="fil38" points="3580,5845 4223,5496 4195,6235 3552,6584 "/>
   <polygon class="fil39" points="2965,5454 3608,5106 4223,5496 3580,5845 "/>
   <g>
    <polygon class="fil34" points="3447,5536 3469,4937 3991,4654 3968,5254 "/>
    <polygon class="fil35" points="3397,4891 3469,4937 3991,4654 3919,4609 "/>
    <polygon class="fil36" points="3397,4891 3375,5491 3447,5536 3469,4937 "/>
   </g>
   <g>
    <polygon class="fil40" points="4167,6972 4195,6232 4810,6623 4782,7362 "/>
   </g>
   <g>
    <polygon class="fil41" points="4810,6623 5452,6275 5424,7014 4782,7362 "/>
   </g>
   <g>
    <polygon class="fil42" points="4195,6232 4837,5884 5452,6275 4810,6623 "/>
   </g>
   <g>
    <polygon class="fil34" points="4676,6315 4699,5715 5220,5432 5198,6032 "/>
    <polygon class="fil35" points="4627,5670 4699,5715 5220,5432 5148,5387 "/>
    <polygon class="fil36" points="4627,5670 4604,6270 4676,6315 4699,5715 "/>
   </g>
   <g>
    <polygon class="fil6" points="3972,3346 3499,3046 3520,2477 3993,2778 "/>
   </g>
   <g>
    <polygon class="fil43" points="3972,3346 4466,3078 4488,2510 3993,2778 "/>
   </g>
   <g>
    <polygon class="fil44" points="3520,2477 4015,2209 4488,2510 3993,2778 "/>
   </g>
   <g>
    <polygon class="fil8" points="4960,2810 4488,2510 4530,1373 5003,1673 "/>
   </g>
   <g>
    <polygon class="fil9" points="4960,2810 5455,2542 5497,1405 5003,1673 "/>
   </g>
   <g>
    <polygon class="fil45" points="4530,1373 5024,1105 5497,1405 5003,1673 "/>
   </g>
   <g>
    <polygon class="fil40" points="5949,2274 5476,1974 5540,268 6013,569 "/>
   </g>
   <g>
    <polygon class="fil41" points="5949,2274 6443,2006 6507,301 6013,569 "/>
   </g>
   <g>
    <polygon class="fil42" points="5540,268 6034,0 6507,301 6013,569 "/>
   </g>
   <polygon class="fil46" points="6206,8259 10464,10965 11284,10521 6992,7835 "/>
   <polygon class="fil47" points="6206,8259 6204,8364 10460,11077 10464,10965 "/>
   <polygon class="fil48" points="10460,11077 11280,10627 11284,10521 10464,10965 "/>
   <g>
    <path class="fil49" d="M3232 8800c18,11 12,52 -13,92 -25,41 -59,64 -77,53 -17,-12 -12,-53 13,-93 25,-40 60,-64 77,-52z"/>
    <polygon class="fil49" points="2745,8902 3142,8945 3232,8800 3023,8454 "/>
    <polygon class="fil26" points="3142,8945 3330,8963 3232,8800 "/>
    <path class="fil49" d="M3012 8443c55,36 36,165 -41,290 -78,125 -185,198 -240,163 -55,-36 -37,-165 41,-290 77,-125 185,-198 240,-163z"/>
    <polygon class="fil50" points="714,6971 3012,8443 2731,8896 433,7423 "/>
    <polygon class="fil50" points="2871,8669 2914,8860 2731,8896 "/>
    <polygon class="fil50" points="3012,8443 3054,8634 2871,8669 "/>
    <line class="fil1 str2" x1="2884" y1="8678" x2="641" y2= "7241" />
    <path class="fil51" d="M305 7341l128 82c55,36 162,-37 240,-162 77,-125 96,-255 41,-290l-139 -89 -270 459z"/>
    <path class="fil49" d="M586 6889c55,35 36,165 -41,290 -78,125 -185,198 -240,162 -55,-35 -37,-165 41,-290 77,-125 185,-197 240,-162z"/>
    <path class="fil52" d="M167 6937c-151,244 138,404 138,404 55,36 162,-37 240,-162 77,-125 96,-255 41,-290 0,0 -267,-196 -419,48z"/>
   </g>
   <g>
    <path class="fil8" d="M12113 6567c0,-4 1,-7 1,-11 0,-4 0,-7 0,-11l9 -237 -91 -4c-166,-232 -563,-404 -1033,-420 -456,-15 -854,121 -1044,330l-109 -5 -11 295 2 0c10,339 500,626 1114,647 615,21 1124,-233 1160,-571l1 0 1 -13z"/>
   </g>
   <g>
    <path class="fil9" d="M12124 6286c-13,350 -534,616 -1163,595 -629,-21 -1128,-322 -1115,-672 13,-349 534,-616 1163,-595 629,22 1129,322 1115,672z"/>
   </g>
   <g>
    <line class="fil1 str3" x1="6800" y1="8056" x2="7091" y2= "7897" />
    <line class="fil1 str3" x1="6899" y1="8117" x2="7189" y2= "7959" />
    <line class="fil1 str3" x1="6998" y1="8179" x2="7288" y2= "8021" />
    <line class="fil1 str3" x1="7096" y1="8241" x2="7387" y2= "8082" />
    <line class="fil1 str3" x1="7195" y1="8302" x2="7486" y2= "8144" />
    <line class="fil1 str3" x1="7294" y1="8364" x2="7584" y2= "8206" />
    <line class="fil1 str3" x1="7393" y1="8426" x2="7683" y2= "8267" />
    <line class="fil1 str3" x1="7491" y1="8487" x2="7782" y2= "8329" />
    <line class="fil1 str3" x1="7590" y1="8549" x2="7880" y2= "8391" />
    <line class="fil1 str3" x1="7689" y1="8611" x2="7979" y2= "8452" />
    <line class="fil1 str3" x1="7788" y1="8672" x2="8078" y2= "8514" />
    <line class="fil1 str3" x1="7886" y1="8734" x2="8177" y2= "8576" />
    <line class="fil1 str3" x1="7985" y1="8796" x2="8275" y2= "8637" />
    <line class="fil1 str3" x1="8084" y1="8857" x2="8374" y2= "8699" />
    <line class="fil1 str3" x1="8182" y1="8919" x2="8473" y2= "8761" />
    <line class="fil1 str3" x1="8281" y1="8981" x2="8572" y2= "8822" />
    <line class="fil1 str3" x1="8380" y1="9042" x2="8670" y2= "8884" />
    <line class="fil1 str3" x1="8479" y1="9104" x2="8769" y2= "8946" />
    <line class="fil1 str3" x1="8577" y1="9166" x2="8868" y2= "9007" />
    <line class="fil1 str3" x1="8676" y1="9227" x2="8967" y2= "9069" />
    <line class="fil1 str3" x1="8775" y1="9289" x2="9065" y2= "9131" />
    <line class="fil1 str3" x1="8874" y1="9351" x2="9164" y2= "9192" />
    <line class="fil1 str3" x1="8972" y1="9412" x2="9263" y2= "9254" />
    <line class="fil1 str3" x1="9071" y1="9474" x2="9361" y2= "9316" />
    <line class="fil1 str3" x1="9170" y1="9536" x2="9460" y2= "9377" />
    <line class="fil1 str3" x1="9268" y1="9597" x2="9559" y2= "9439" />
    <line class="fil1 str3" x1="9367" y1="9659" x2="9658" y2= "9501" />
    <line class="fil1 str3" x1="9466" y1="9721" x2="9756" y2= "9562" />
    <line class="fil1 str3" x1="9565" y1="9782" x2="9855" y2= "9624" />
    <line class="fil1 str3" x1="9663" y1="9844" x2="9954" y2= "9686" />
    <line class="fil1 str3" x1="9762" y1="9906" x2="10053" y2= "9747" />
    <line class="fil1 str3" x1="9861" y1="9967" x2="10151" y2= "9809" />
    <line class="fil1 str3" x1="9960" y1="10029" x2="10250" y2= "9871" />
    <line class="fil1 str3" x1="10058" y1="10091" x2="10349" y2= "9932" />
    <line class="fil1 str3" x1="10157" y1="10152" x2="10448" y2= "9994" />
    <line class="fil1 str3" x1="10256" y1="10214" x2="10546" y2= "10056" />
    <line class="fil1 str3" x1="10355" y1="10276" x2="10645" y2= "10117" />
    <line class="fil1 str3" x1="10453" y1="10337" x2="10744" y2= "10179" />
    <line class="fil1 str3" x1="10552" y1="10399" x2="10842" y2= "10241" />
    <line class="fil1 str3" x1="10651" y1="10461" x2="10941" y2= "10302" />
    <line class="fil1 str3" x1="10749" y1="10523" x2="11040" y2= "10364" />
    <line class="fil1 str3" x1="10848" y1="10584" x2="11139" y2= "10426" />
   </g>
   <g>
    <polygon class="fil1 str4" points="14393,10386 14429,9438 15482,10108 15447,11052 "/>
    <polygon class="fil53" points="14346,10409 14382,9461 15435,10131 15400,11075 "/>
    <polygon class="fil54" points="14415,10371 14445,9582 15367,10168 15337,10954 "/>
    <polygon class="fil53" points="15400,11075 15447,11052 15482,10108 15435,10131 "/>
    <polygon class="fil55" points="15435,10131 15482,10108 14429,9438 14382,9461 "/>
    <polygon class="fil53" points="14346,10409 13523,10855 14573,11523 15400,11075 "/>
    <path class="fil55" d="M13912 10721l932 578 -32 17c-16,9 -43,8 -58,-2l-863 -548c-15,-10 -15,-25 2,-34l19 -11z"/>
    <polygon class="fil55" points="14874,11281 13946,10703 13980,10684 14912,11262 "/>
    <polygon class="fil55" points="14980,11225 14946,11243 14015,10666 14049,10647 "/>
    <polygon class="fil55" points="15049,11188 15015,11206 14083,10629 14117,10610 "/>
    <polygon class="fil55" points="15117,11151 15083,11169 14152,10592 14185,10573 "/>
    <polygon class="fil55" points="15185,11114 15151,11132 14220,10554 14254,10536 "/>
    <path class="fil55" d="M15236 11086l-16 9 -932 -578 26 -13c16,-9 42,-8 58,1l865 548c16,9 15,25 -1,33z"/>
    <polygon class="fil55" points="13523,10855 13521,10904 14571,11575 14573,11523 "/>
    <polygon class="fil53" points="14571,11575 15445,11107 15447,11052 14573,11523 "/>
    <g>
     <path class="fil55" d="M14289 11179c-2,0 -5,0 -8,-2l-208 -125c-8,-5 -11,-16 -6,-24 5,-8 15,-11 23,-6l209 126c8,4 10,15 6,23 -4,6 -10,9 -16,8z"/>
    </g>
    <polygon class="fil56" points="14839,9832 15030,10760 15329,10949 15367,10168 "/>
   </g>
   <g>
    <polygon class="fil57" points="16601,5350 16572,6126 16083,6391 16112,5616 "/>
    <polygon class="fil58" points="16083,6391 15968,6313 15997,5542 16112,5616 "/>
    <polygon class="fil59" points="16601,5350 16486,5276 15997,5542 16112,5616 "/>
   </g>
   <g>
    <polygon class="fil38" points="16864,5515 16835,6291 16345,6556 16374,5781 "/>
    <polygon class="fil37" points="16345,6556 16230,6478 16259,5707 16374,5781 "/>
    <polygon class="fil39" points="16864,5515 16749,5442 16259,5707 16374,5781 "/>
   </g>
   <g>
    <polygon class="fil60" points="17156,5701 17127,6477 16637,6742 16666,5967 "/>
    <polygon class="fil61" points="16637,6742 16522,6664 16551,5893 16666,5967 "/>
    <polygon class="fil62" points="17156,5701 17041,5628 16551,5893 16666,5967 "/>
   </g>
   <g>
    <polygon class="fil30" points="17426,5872 17396,6647 16907,6913 16936,6138 "/>
    <polygon class="fil24" points="16907,6913 16792,6835 16821,6064 16936,6138 "/>
    <polygon class="fil7" points="17426,5872 17311,5798 16821,6064 16936,6138 "/>
   </g>
   <g>
    <path class="fil63" d="M16883 9151c-93,-59 -249,-65 -347,-12l-379 206c-98,53 -101,145 -8,204l1064 677c94,59 250,64 348,11l379 -205c98,-53 101,-145 8,-205l-1065 -676z"/>
    <path class="fil64" d="M16885 9104c-93,-59 -250,-64 -347,-11l-379 205c-98,53 -101,145 -8,204l1064 677c94,59 250,65 348,12l379 -206c97,-53 101,-145 7,-204l-1064 -677z"/>
    <path class="fil3" d="M16153 9439l1065 676c93,60 249,65 347,12l379 -206c98,-53 101,-145 8,-204l-29 -18 -1036 -658c-93,-60 -249,-65 -347,-12l-314 170 -65 35c-98,53 -101,145 -8,205z"/>
    <polygon class="fil54" points="16888,9082 17891,9719 17230,10074 16227,9437 "/>
    <g>
     <g>
      <path class="fil54" d="M16386 9253c2,0 4,0 5,-1l146 -79c5,-3 7,-9 4,-14 -2,-5 -8,-7 -13,-4l-146 79c-5,3 -7,9 -4,14 1,3 5,5 8,5z"/>
     </g>
     <path class="fil54" d="M16559 9133c0,12 13,22 29,22 15,1 29,-8 29,-20 1,-12 -12,-22 -28,-23 -16,0 -29,9 -30,21z"/>
    </g>
    <path class="fil54" d="M16394 9149c0,6 6,11 15,11 8,1 15,-4 15,-10 0,-6 -6,-11 -15,-12 -8,0 -15,5 -15,11z"/>
    <g>
     <path class="fil64" d="M17649 9935c1,-26 30,-46 64,-45 34,1 61,23 60,49 -1,27 -30,47 -64,46 -34,-1 -61,-23 -60,-50zm10 1l0 0c-1,20 22,38 50,39 29,1 53,-15 54,-36 0,-21 -22,-38 -51,-39 -28,-1 -52,15 -53,36z"/>
    </g>
    <path class="fil65" d="M16226 9199l1565 574 132 -74 -1036 -658c-93,-60 -249,-65 -347,-12l-314 170z"/>
   </g>
   <g>
    <polygon class="fil17" points="13155,9395 12445,9780 10743,8698 11240,8429 11798,8490 11914,8935 13147,9002 "/>
   </g>
   <g>
    <path class="fil17" d="M12404 8465c-2,57 -85,101 -184,97 -100,-3 -179,-52 -177,-109 2,-58 85,-101 184,-98 100,3 179,53 177,110z"/>
   </g>
   <g>
    <path class="fil43" d="M11749 6735l-11 270c-197,95 -458,151 -743,147l5 -270 -15 -634 764 487z"/>
   </g>
   <g>
    <path class="fil6" d="M11749 6735l-11 270c-197,95 -458,151 -743,147l5 -270c287,4 550,-52 749,-147z"/>
   </g>
   <g>
    <path class="fil0" d="M16811 7705c-4,106 -257,184 -565,173 -309,-10 -556,-105 -552,-211 4,-106 258,-184 566,-173 308,10 555,105 551,211z"/>
    <g>
     <polygon class="fil66" points="16515,4282 16308,4374 16295,4314 16275,4230 16269,4204 16322,4180 16393,4148 16459,4118 "/>
     <polygon class="fil67" points="16393,4148 16295,4314 16275,4230 16282,4211 16322,4180 "/>
     <path class="fil66" d="M15958 4516l-102 -121 -56 -156c0,0 -36,-35 -48,-21 -13,15 34,249 34,249l-86 31c0,0 -2,17 7,22 9,4 97,41 97,41l75 35 79 -80z"/>
     <path class="fil46" d="M16209 4688l-77 256 -127 -165 -144 -188c16,-57 88,-84 88,-84l130 106 130 75z"/>
     <g>
      <polygon class="fil1 str4" points="15669,4110 15687,3616 15114,3927 15095,4419 "/>
      <polygon class="fil53" points="15692,4123 15711,3630 15138,3941 15119,4432 "/>
      <polygon class="fil54" points="15658,4101 15674,3690 15172,3962 15156,4372 "/>
      <polygon class="fil53" points="15119,4432 15095,4419 15114,3927 15138,3941 "/>
      <polygon class="fil55" points="15138,3941 15114,3927 15687,3616 15711,3630 "/>
      <polygon class="fil53" points="15692,4123 16103,4384 15531,4694 15119,4432 "/>
      <path class="fil55" d="M15906 4301l-507 267 16 10c8,5 22,6 30,1l470 -254c8,-5 9,-13 0,-18l-9 -6z"/>
      <polygon class="fil55" points="15384,4558 15889,4290 15872,4279 15365,4547 "/>
      <polygon class="fil55" points="15331,4525 15348,4536 15855,4268 15838,4258 "/>
      <polygon class="fil55" points="15297,4503 15314,4514 15821,4247 15804,4236 "/>
      <polygon class="fil55" points="15263,4482 15280,4492 15786,4225 15770,4214 "/>
      <polygon class="fil55" points="15229,4460 15246,4471 15752,4203 15736,4193 "/>
      <path class="fil55" d="M15204 4444l8 5 506 -267 -12 -8c-8,-5 -22,-6 -31,-1l-470 253c-9,5 -9,13 -1,18z"/>
      <polygon class="fil55" points="16103,4384 16102,4409 15530,4721 15531,4694 "/>
      <polygon class="fil53" points="15530,4721 15094,4447 15095,4419 15531,4694 "/>
      <g>
       <path class="fil55" d="M15692 4526c1,0 3,-1 4,-1l113 -58c5,-2 6,-8 4,-12 -2,-5 -7,-6 -12,-4l-113 58c-4,2 -6,7 -4,12 2,3 5,4 8,5z"/>
      </g>
      <polygon class="fil56" points="15459,3806 15324,4282 15161,4369 15172,3962 "/>
     </g>
     <polygon class="fil68" points="16261,5488 16279,6513 16351,7614 16488,7624 16529,6377 16635,5774 16646,5412 16266,5419 "/>
     <path class="fil68" d="M16371 7585c0,0 6,26 -70,26 -75,0 -191,0 -146,64 45,64 235,39 281,34l1 24 58 0c0,0 12,-50 -8,-137l-116 -11z"/>
     <path class="fil66" d="M15465 4837l-70 -157 -181 -185c0,0 -4,-31 16,-37 20,-6 266,184 266,184l70 -72c0,0 17,5 17,17 0,11 -5,116 -5,116l8 60 -121 74z"/>
     <polygon class="fil69" points="16209,4688 16132,4944 16005,4779 16079,4613 "/>
     <path class="fil68" d="M16059 5555l18 1026 72 1101 137 10 69 -1251c0,0 270,-440 309,-605 21,-85 -1,-349 -1,-349l-599 0 -5 68z"/>
     <path class="fil66" d="M16145 3719c0,0 -37,267 -34,313 3,45 74,212 124,222 49,10 257,-163 257,-163l-22 -411 -239 -38 -86 77z"/>
     <path class="fil70" d="M15978 3527l82 139 85 53 206 -58 9 26 31 170c0,0 26,-35 57,-24 31,12 32,135 11,150 -22,15 -60,16 -60,16l28 90 77 50 129 -266 -20 -218 -142 -170 -257 27 -120 26 -116 -11z"/>
     <path class="fil46" d="M16031 5613l662 -10c1,-128 3,-1153 -10,-1207 -16,-65 -122,-118 -168,-114l-189 44c0,0 -162,26 -220,228 -63,221 -119,518 -119,518l-409 -330c0,0 -82,37 -113,95 -9,17 -1,20 -1,20l481 548 91 52 -5 156z"/>
     <path class="fil68" d="M16159 7649c0,0 7,26 -68,32 -76,5 -191,14 -142,74 50,60 238,21 283,12l2 25 59 -5c0,0 8,-51 -19,-135l-115 -3z"/>
     <path class="fil69" d="M16093 5430c0,0 107,-106 142,-213 35,-107 100,-488 100,-488l-24 384c0,0 -51,179 -218,317z"/>
    </g>
   </g>
   <g>
    <path class="fil0" d="M13569 14506c-5,118 -288,205 -632,193 -345,-11 -620,-117 -616,-235 5,-119 288,-206 632,-194 345,11 620,117 616,236z"/>
    <g>
     <path class="fil68" d="M12500 12069c0,0 -23,237 -19,308 4,71 149,472 139,652 -11,181 -22,1159 -22,1159 0,0 53,26 157,4 0,0 178,-895 176,-911 -2,-15 17,-412 17,-412l88 601c0,0 74,579 55,724 0,0 83,27 148,14 0,0 136,-1108 127,-1259 -8,-151 -24,-833 -24,-833l-821 -99 -21 52z"/>
     <path class="fil66" d="M13859 11095l92 -107c0,0 15,-165 49,-160 34,4 25,51 36,74 11,22 50,-6 81,-36 30,-31 95,-92 116,-90 21,2 -1,75 -21,121 -20,47 -226,315 -226,315l-157 -54 30 -63z"/>
     <polygon class="fil66" points="13208,9926 13264,9989 13306,10040 13325,10286 13245,10492 13153,10555 13115,10100 "/>
     <path class="fil71" d="M13203 10611c0,0 256,47 297,344 41,297 67,470 67,470l292 -330c0,0 102,-7 146,86l-395 565c0,0 -108,60 -185,-87 -77,-146 -103,-177 -103,-177l14 683c0,0 -352,142 -836,-96l61 -1117c0,0 8,-396 221,-407 213,-11 421,66 421,66z"/>
     <path class="fil70" d="M12924 9888c0,0 78,-89 177,-70 98,18 174,83 178,193 4,109 35,268 -12,326 -47,57 -75,137 -70,193 4,56 109,367 27,477 -83,110 -242,239 -457,164 -215,-74 -255,-406 -178,-530 77,-124 190,-172 184,-304 -5,-133 17,-491 151,-449z"/>
     <polygon class="fil68" points="12598,14188 12590,14337 12596,14419 12599,14580 12638,14581 12659,14378 12686,14356 12768,14502 12854,14516 12975,14465 13002,14389 13003,14367 12884,14340 12755,14182 12638,14172 "/>
     <polygon class="fil68" points="13091,14191 13082,14340 13088,14422 13092,14583 13130,14584 13151,14380 13178,14358 13260,14504 13346,14519 13467,14467 13494,14392 13495,14369 13376,14342 13239,14208 13130,14174 "/>
    </g>
   </g>
   <g>
    <g>
     <path class="fil68" d="M6077 8028c0,0 35,266 -218,401 -254,134 -406,894 -448,1120 0,0 -153,48 -195,-14 -41,-61 75,-985 140,-1179 0,0 -153,133 -237,453l-110 562c0,0 -144,60 -213,-40 0,0 90,-1072 161,-1163 71,-92 447,-392 447,-392l675 183 -2 69z"/>
     <path class="fil68" d="M4796 9331c0,0 -55,71 -106,89 -50,18 -187,114 -186,163 1,50 166,35 235,-2 69,-36 100,-62 125,-65l7 17c0,0 89,17 117,4 0,0 23,-92 21,-166l-64 -14 -149 -26z"/>
     <path class="fil68" d="M5216 9535c0,0 -36,157 -77,196 -40,39 -95,124 -75,149 20,25 70,64 142,-8 73,-72 120,-124 143,-172l6 31 57 -40c0,0 8,-74 -1,-142l-104 -61 -91 47z"/>
     <path class="fil72" d="M5541 6783c0,0 -95,23 -239,527l-52 184 -449 -47c0,0 -12,38 -7,115l481 184c0,0 310,-539 266,-963z"/>
     <path class="fil73" d="M5555 6918c0,0 -343,403 -254,759l24 56 193 -484 37 -331z"/>
     <path class="fil72" d="M6144 7253c0,0 11,-225 -123,-330 -135,-105 -309,-159 -422,-151 -64,4 -130,24 -182,184 -53,160 -100,891 -100,891 0,0 312,161 544,190 0,0 94,33 220,-28l63 -756z"/>
     <path class="fil73" d="M5974 7087c0,0 -41,59 -62,249 -21,191 -54,504 -54,504l157 69 -41 -822z"/>
     <g>
      <polygon class="fil53" points="5338,8106 5711,7878 5713,7849 5357,7597 "/>
      <polygon class="fil55" points="5317,8091 5713,7849 5711,7878 5318,8117 "/>
      <path class="fil55" d="M5345 7924l69 50 -57 34c-9,5 -15,0 -15,-11l3 -73z"/>
      <polygon class="fil55" points="5457,7948 5427,7966 5346,7907 5347,7868 "/>
      <polygon class="fil55" points="5492,7928 5471,7941 5348,7851 5349,7823 "/>
      <polygon class="fil55" points="5526,7908 5505,7920 5349,7806 5350,7779 "/>
      <polygon class="fil55" points="5570,7882 5540,7900 5540,7900 5351,7762 5353,7723 "/>
      <path class="fil55" d="M5603 7862l-19 12 -231 -168 1 -15c0,-10 7,-15 15,-9l235 162c8,5 8,14 -1,18z"/>
      <polygon class="fil74" points="4786,7742 4806,7206 5337,7582 5316,8118 "/>
      <polygon class="fil55" points="5316,8118 5338,8106 5358,7570 5337,7582 "/>
      <polygon class="fil53" points="4806,7206 5337,7582 5358,7570 4828,7194 "/>
      <path class="fil75" d="M5112 7664c-2,50 -26,89 -54,88 -28,0 -50,-42 -48,-92 2,-49 27,-89 55,-88 28,1 49,42 47,92z"/>
     </g>
     <path class="fil66" d="M5914 6889c-195,70 -251,16 -251,16l0 -21 -4 -159 115 -7 93 -6 6 22 7 25 34 130z"/>
     <path class="fil66" d="M5497 7892l-175 13c0,0 -49,11 -69,53 -20,42 85,72 104,91 19,20 170,-13 170,-13l-30 -144z"/>
     <path class="fil66" d="M5503 7892c0,0 -67,-69 -80,-70 -14,0 -7,91 25,96l55 -26z"/>
     <path class="fil66" d="M4793 7551c0,0 -19,22 -19,74 0,51 16,87 34,103 18,17 41,-37 22,-88 -19,-50 -37,-89 -37,-89z"/>
     <path class="fil72" d="M6006 7021c0,0 -65,93 -75,278 -10,184 -19,508 -19,508l-409 85c0,0 -2,115 4,142l485 37c0,0 92,-6 123,-50 32,-44 101,-772 2,-978 0,0 -52,-94 -111,-22z"/>
     <polygon class="fil67" points="5899,6738 5880,6759 5800,6844 5663,6884 5659,6725 5774,6718 5873,6734 "/>
     <polygon class="fil66" points="5595,6232 5585,6510 5640,6816 5719,6834 5861,6797 5950,6660 5975,6286 5729,6160 "/>
     <path class="fil70" d="M5595 6232l-69 -55 -30 -70c0,0 142,-15 152,-35 10,-20 237,-102 237,-102l154 215 9 354 -98 121 -49 16 4 -121c0,0 25,-20 41,-54 17,-34 13,-132 -23,-123 -36,9 -68,-105 -68,-105l-167 -51 -93 10z"/>
    </g>
    <path class="fil0" d="M5995 8444c-27,33 -82,89 -143,172 -78,105 -164,252 -209,449l-266 -169c0,0 0,0 0,0 19,-188 53,-404 106,-470l-64 -60c0,0 -168,110 -246,401l-150 -96 94 -497 34 -3 456 -44 459 4c0,0 3,223 -71,313z"/>
   </g>
  </g>
 </g>
</svg>
