<?xml version="1.0" encoding="UTF-8"?>
<!DOCTYPE svg PUBLIC "-//W3C//DTD SVG 1.1//EN" "http://www.w3.org/Graphics/SVG/1.1/DTD/svg11.dtd">
<!-- Creator: CorelDRAW X7 -->
<svg xmlns="http://www.w3.org/2000/svg" xml:space="preserve" width="324.704mm" height="415.38mm" version="1.1" style="shape-rendering:geometricPrecision; text-rendering:geometricPrecision; image-rendering:optimizeQuality; fill-rule:evenodd; clip-rule:evenodd"
viewBox="0 0 25426 32526"
 xmlns:xlink="http://www.w3.org/1999/xlink">
 <defs>
  <style type="text/css">
   <![CDATA[
    .fil1 {fill:#FEFEFE}
    .fil2 {fill:#EBECEC}
    .fil5 {fill:#B2B3B3}
    .fil3 {fill:#2B2A29}
    .fil0 {fill:#FFDC0A}
    .fil4 {fill:#2B2A29;fill-rule:nonzero}
   ]]>
  </style>
 </defs>
 <g id="Layer_x0020_1">
  <metadata id="CorelCorpID_0Corel-Layer"/>
  <path class="fil0" d="M345 8501c677,-1758 2454,-2817 3836,-4387 1381,-1570 2366,-3651 4484,-4043 2118,-391 5368,907 8572,1929 3205,1023 6363,1768 7063,3923 700,2155 -1059,5718 -1105,8877 -46,3158 1621,5911 2086,7955 465,2044 -272,3380 -1036,4710 -765,1331 -1556,2657 -3030,3605 -1473,948 -3628,1519 -5690,1450 -2063,-69 -4033,-778 -6064,-1197 -2030,-419 -4120,-548 -5607,-1178 -1487,-631 -2371,-1764 -2542,-3324 -170,-1561 373,-3550 765,-5194 391,-1643 630,-2942 345,-3959 -286,-1018 -1096,-1754 -1713,-3352 -617,-1597 -1040,-4056 -364,-5815z"/>
  <polygon class="fil1" points="16358,28322 23761,24326 14626,21280 9860,22770 "/>
  <polygon class="fil1" points="8497,17480 12018,17120 14626,21280 9860,22770 "/>
  <polygon class="fil1" points="14970,28718 15166,27648 15530,27953 15402,28505 "/>
  <polygon class="fil1" points="9990,24500 10186,23430 10550,23735 10422,24287 "/>
  <polygon class="fil2" points="14970,28718 15162,27642 14782,27322 14713,28491 "/>
  <polygon class="fil2" points="9990,24500 10182,23424 9802,23104 9733,24274 "/>
  <polygon class="fil2" points="16358,28322 23761,24326 23768,24647 16329,28617 "/>
  <polygon class="fil2" points="16358,28322 16330,28609 9802,23104 9860,22770 "/>
  <polygon class="fil2" points="8497,17480 8333,17632 9799,23095 9860,22770 "/>
  <polygon class="fil0" points="15719,27300 21939,24043 22355,24147 15916,27430 "/>
  <polygon class="fil0" points="14712,26457 20479,23526 20793,23602 14909,26586 "/>
  <polygon class="fil0" points="13791,25675 19180,23059 19465,23146 13988,25804 "/>
  <polygon class="fil0" points="12964,24979 17960,22661 18237,22732 13161,25108 "/>
  <polygon class="fil0" points="12096,24270 16892,22256 17112,22323 12293,24400 "/>
  <polygon class="fil0" points="11367,23607 15867,21903 16087,21971 11564,23736 "/>
  <polygon class="fil0" points="10650,22956 14703,21575 14923,21642 10847,23085 "/>
  <polygon class="fil0" points="9876,21613 13798,20555 13883,20721 9938,21832 "/>
  <polygon class="fil0" points="9668,20708 13319,19790 13404,19955 9729,20927 "/>
  <polygon class="fil0" points="9393,19799 12930,19032 13015,19198 9455,20018 "/>
  <polygon class="fil0" points="9164,18898 12484,18332 12569,18498 9226,19118 "/>
  <polygon class="fil0" points="8939,18062 12049,17660 12128,17814 8996,18266 "/>
  <path class="fil2" d="M10592 5207c5331,-1965 10684,-1821 11955,322 1271,2143 -2021,5474 -7353,7440 -5331,1966 -10683,1822 -11955,-322 -1271,-2143 2021,-5474 7353,-7440z"/>
  <polygon class="fil1" points="11911,4769 17566,22248 17048,22109 11706,4816 "/>
  <polygon class="fil2" points="5804,25625 4913,23748 4874,25212 5798,27697 "/>
  <polygon class="fil1" points="5811,25631 9423,24474 9515,26448 5805,27703 "/>
  <polygon class="fil1" points="5811,25638 9423,24474 7222,23140 4914,23746 "/>
  <polygon class="fil3" points="11911,4769 12714,7223 12482,7300 11706,4816 "/>
  <polygon class="fil3" points="14214,11860 15842,16937 15509,17052 13925,11933 "/>
  <path class="fil2" d="M5985 22449c298,0 539,39 539,87 0,48 -158,1567 -456,1567 -67,0 -384,33 -450,-88 -226,-413 -171,-1442 -171,-1479 0,-48 241,-87 538,-87z"/>
  <ellipse class="fil1" cx="5985" cy="22536" rx="539" ry="87"/>
  <polygon class="fil1" points="6476,23975 7492,23569 8727,24411 7462,24956 "/>
  <polygon class="fil2" points="6489,23727 7506,23320 8741,24163 7476,24707 "/>
  <path class="fil4" d="M7194 24187l15 -11c9,9 17,15 26,19 8,4 17,6 26,7 9,0 17,-2 25,-6 7,-4 11,-8 14,-14 3,-5 3,-11 1,-17 -2,-6 -5,-12 -10,-18 -5,-5 -11,-9 -17,-12 -7,-3 -14,-4 -22,-4 -5,0 -16,1 -31,4 -16,3 -28,4 -36,3 -11,-1 -20,-4 -30,-9 -9,-5 -17,-11 -25,-19 -8,-9 -14,-19 -17,-29 -4,-10 -4,-18 0,-27 3,-8 9,-14 18,-19 10,-5 21,-8 32,-8 11,0 23,3 35,9 11,6 22,15 32,25l-15 11c-11,-11 -22,-18 -33,-21 -10,-2 -21,-1 -31,5 -10,5 -16,12 -16,20 0,8 4,16 11,23 5,6 12,11 19,13 7,2 20,2 38,-2 19,-3 32,-5 40,-5 12,1 23,4 34,9 10,5 20,13 29,22 8,10 15,20 18,30 4,11 4,20 1,29 -3,9 -9,16 -19,21 -12,7 -24,10 -36,10 -13,-1 -26,-4 -39,-11 -13,-7 -26,-16 -37,-28z"/>
  <path id="1" class="fil4" d="M7436 24140l-17 -19c6,18 2,31 -10,38 -6,3 -13,5 -20,5 -8,-1 -15,-2 -21,-5 -7,-3 -13,-8 -20,-14 -5,-4 -11,-10 -20,-20l-74 -79 16 -9 66 71c11,11 18,19 23,23 6,5 12,8 19,9 6,2 12,1 17,-1 4,-3 7,-7 9,-13 1,-6 -1,-12 -4,-19 -4,-6 -11,-15 -21,-26l-64 -69 17 -9 119 129 -15 8z"/>
  <path id="2" class="fil4" d="M7495 24036l19 -5c12,15 18,29 19,41 0,13 -5,22 -15,27 -13,8 -29,8 -48,0 -18,-7 -38,-21 -57,-42 -13,-14 -23,-27 -29,-40 -6,-12 -8,-23 -6,-32 2,-9 7,-16 15,-20 11,-6 23,-7 36,-3 13,3 26,11 40,23l-12 12c-10,-8 -19,-13 -26,-16 -8,-2 -15,-2 -20,1 -8,5 -11,13 -9,23 2,11 11,25 27,42 16,17 30,28 42,33 12,6 22,6 30,2 6,-4 9,-9 9,-17 -1,-8 -6,-17 -15,-29z"/>
  <path id="3" class="fil4" d="M7588 23985l18 -5c12,15 18,29 19,42 0,12 -5,21 -15,27 -13,7 -29,7 -48,0 -18,-7 -37,-22 -57,-43 -13,-14 -23,-27 -29,-39 -6,-13 -8,-23 -6,-32 2,-10 8,-16 16,-21 10,-6 22,-7 35,-3 13,3 27,11 41,23l-13 12c-10,-8 -18,-13 -26,-15 -8,-3 -15,-2 -20,1 -8,4 -11,12 -9,22 2,11 11,25 27,42 16,17 30,29 42,34 12,5 22,5 30,1 7,-4 10,-9 9,-17 -1,-7 -5,-17 -14,-29z"/>
  <path id="4" class="fil4" d="M7688 23939l19 -7c10,15 14,28 14,39 0,11 -6,20 -17,26 -14,8 -31,8 -50,1 -18,-7 -38,-21 -57,-42 -20,-22 -31,-41 -34,-57 -3,-17 2,-29 15,-36 13,-7 29,-7 48,0 19,8 38,22 58,43 1,1 3,3 5,6l-71 39c14,14 27,23 39,28 12,4 22,4 30,0 6,-3 9,-8 10,-15 0,-6 -3,-15 -9,-25zm-86 -6l54 -29c-11,-11 -21,-18 -29,-21 -13,-6 -24,-7 -32,-2 -7,4 -10,11 -9,20 1,10 6,20 16,32z"/>
  <path id="5" class="fil4" d="M7722 23925l12 -12c9,8 18,13 26,15 9,3 17,2 24,-2 8,-4 11,-9 11,-16 0,-6 -3,-11 -8,-17 -4,-5 -10,-8 -15,-9 -5,-1 -12,0 -24,2 -16,2 -27,3 -34,3 -8,0 -15,-3 -22,-6 -7,-4 -14,-9 -20,-16 -5,-5 -9,-11 -11,-17 -3,-6 -4,-12 -4,-17 1,-4 2,-8 5,-12 3,-4 6,-7 11,-10 8,-4 16,-6 24,-7 9,0 16,2 24,5 7,4 15,9 24,17l-13 12c-7,-6 -14,-10 -21,-12 -7,-2 -14,-1 -20,2 -7,4 -11,9 -11,14 0,5 2,10 6,14 2,3 5,5 9,7 3,1 7,2 11,2 3,0 9,-1 20,-2 15,-2 26,-3 33,-3 7,0 14,2 21,5 8,4 15,9 22,17 6,7 11,15 14,23 3,8 3,15 0,22 -3,7 -8,12 -15,17 -13,6 -25,8 -38,5 -13,-4 -27,-11 -41,-24z"/>
  <path id="6" class="fil4" d="M7814 23874l13 -12c9,8 17,13 26,16 8,2 16,1 23,-3 8,-4 12,-9 11,-15 0,-6 -2,-12 -8,-18 -4,-5 -9,-8 -15,-9 -4,0 -12,0 -24,2 -15,3 -27,4 -34,3 -7,0 -15,-2 -22,-6 -7,-4 -13,-9 -19,-15 -6,-6 -10,-12 -12,-18 -3,-6 -4,-12 -3,-17 0,-3 1,-7 4,-12 3,-4 7,-7 12,-10 7,-4 15,-6 23,-6 9,-1 17,1 24,5 7,3 15,9 24,17l-13 11c-7,-6 -14,-10 -21,-12 -7,-2 -13,-1 -20,2 -7,4 -11,9 -11,14 0,5 2,10 6,14 3,3 6,5 9,7 4,1 7,2 12,2 2,0 9,-1 19,-2 15,-2 27,-3 33,-3 7,0 15,2 22,5 7,4 14,9 21,17 7,7 11,15 14,23 3,8 3,16 0,22 -2,7 -8,13 -15,17 -12,7 -25,8 -38,5 -13,-3 -27,-11 -41,-24z"/>
  <path id="7" class="fil4" d="M7916 23809l-92 -91 -37 -40 20 -11 37 40 83 97 -11 5zm37 47l-23 -25 18 -10 23 25 -18 10z"/>
  <path id="8" class="fil4" d="M7967 23781l-92 -91 -36 -40 20 -11 36 40 83 96 -11 6zm37 47l-23 -25 19 -10 23 24 -19 11z"/>
  <path class="fil5" d="M20754 4251c-203,-67 -595,-190 -1090,-275 -494,-84 -1090,-130 -1821,-142 -731,-12 -1597,12 -2617,169 -1021,158 -2198,450 -3235,754 -1037,304 -1935,619 -2726,968 -792,349 -1478,731 -2060,1071 -581,339 -1057,636 -1494,963 -437,326 -835,682 -1199,1042 -364,360 -695,723 -924,1071 -228,348 -354,680 -340,628 13,-52 165,-490 513,-1149 348,-659 893,-1539 1991,-2794 1099,-1255 2752,-2885 4517,-3677 1766,-792 3644,-746 5111,-545 1466,202 2520,559 3385,918 865,360 1541,723 1872,899 332,176 319,165 117,99z"/>
 </g>
</svg>
